<?xml version="1.0" encoding="UTF-8" standalone="no"?><svg xmlns="http://www.w3.org/2000/svg" xmlns:xlink="http://www.w3.org/1999/xlink" contentScriptType="application/ecmascript" contentStyleType="text/css" height="740px" preserveAspectRatio="none" style="width:1790px;height:740px;" version="1.1" viewBox="0 0 1790 740" width="1790px" zoomAndPan="magnify"><defs><filter height="300%" id="f113mhken79lr4" width="300%" x="-1" y="-1"><feGaussianBlur result="blurOut" stdDeviation="2.0"/><feColorMatrix in="blurOut" result="blurOut2" type="matrix" values="0 0 0 0 0 0 0 0 0 0 0 0 0 0 0 0 0 0 .4 0"/><feOffset dx="4.0" dy="4.0" in="blurOut2" result="blurOut3"/><feBlend in="SourceGraphic" in2="blurOut3" mode="normal"/></filter></defs><g><text fill="#888888" font-family="sans-serif" font-size="10" lengthAdjust="spacingAndGlyphs" textLength="240" x="1538" y="9.2822">MVC-A Architecture - MVC plus App Architecture,</text><text fill="#888888" font-family="sans-serif" font-size="10" lengthAdjust="spacingAndGlyphs" textLength="145" x="1633" y="20.9229">emphasizing Controllers Roles</text><text fill="#888888" font-family="sans-serif" font-size="10" lengthAdjust="spacingAndGlyphs" textLength="0" x="1778" y="32.5635"/><text fill="#888888" font-family="sans-serif" font-size="10" lengthAdjust="spacingAndGlyphs" textLength="200" x="1578" y="44.2041">Also on https://www.gituml.com/editz/136</text><text fill="#888888" font-family="sans-serif" font-size="10" lengthAdjust="spacingAndGlyphs" textLength="0" x="1778" y="55.8447"/><text fill="#888888" font-family="sans-serif" font-size="10" lengthAdjust="spacingAndGlyphs" textLength="96" x="1682" y="67.4854">by Andy Bulka 2020</text><!--MD5=[7e20e022571e30ec1001cf6eabd7f3e2]
class Model--><rect fill="#FEFECE" filter="url(#f113mhken79lr4)" height="73.6094" id="Model" style="stroke: #A80036; stroke-width: 1.5;" width="69" x="791.5" y="159.3438"/><ellipse cx="806.5" cy="175.3438" fill="#ADD1B2" rx="11" ry="11" style="stroke: #A80036; stroke-width: 1.0;"/><path d="M809.4688,180.9844 Q808.8906,181.2813 808.25,181.4219 Q807.6094,181.5781 806.9063,181.5781 Q804.4063,181.5781 803.0781,179.9375 Q801.7656,178.2813 801.7656,175.1563 Q801.7656,172.0313 803.0781,170.375 Q804.4063,168.7188 806.9063,168.7188 Q807.6094,168.7188 808.25,168.875 Q808.9063,169.0313 809.4688,169.3281 L809.4688,172.0469 Q808.8438,171.4688 808.25,171.2031 Q807.6563,170.9219 807.0313,170.9219 Q805.6875,170.9219 805,172 Q804.3125,173.0625 804.3125,175.1563 Q804.3125,177.25 805,178.3281 Q805.6875,179.3906 807.0313,179.3906 Q807.6563,179.3906 808.25,179.125 Q808.8438,178.8438 809.4688,178.2656 L809.4688,180.9844 Z "/><text fill="#000000" font-family="sans-serif" font-size="12" lengthAdjust="spacingAndGlyphs" textLength="37" x="820.5" y="179.498">Model</text><line style="stroke: #A80036; stroke-width: 1.5;" x1="792.5" x2="859.5" y1="191.3438" y2="191.3438"/><text fill="#000000" font-family="sans-serif" font-size="11" lengthAdjust="spacingAndGlyphs" textLength="25" x="797.5" y="205.5542">data</text><text fill="#000000" font-family="sans-serif" font-size="11" lengthAdjust="spacingAndGlyphs" textLength="41" x="797.5" y="218.3589">setters</text><line style="stroke: #A80036; stroke-width: 1.5;" x1="792.5" x2="859.5" y1="224.9531" y2="224.9531"/><!--MD5=[67e2b170ac83d81bde48727aa8d1114e]
class Controllers--><rect fill="#FEFECE" filter="url(#f113mhken79lr4)" height="112.0234" id="Controllers" style="stroke: #A80036; stroke-width: 1.5;" width="131" x="507.5" y="391.8438"/><ellipse cx="536.45" cy="407.8438" fill="#ADD1B2" rx="11" ry="11" style="stroke: #A80036; stroke-width: 1.0;"/><path d="M539.4188,413.4844 Q538.8406,413.7813 538.2,413.9219 Q537.5594,414.0781 536.8563,414.0781 Q534.3563,414.0781 533.0281,412.4375 Q531.7156,410.7813 531.7156,407.6563 Q531.7156,404.5313 533.0281,402.875 Q534.3563,401.2188 536.8563,401.2188 Q537.5594,401.2188 538.2,401.375 Q538.8563,401.5313 539.4188,401.8281 L539.4188,404.5469 Q538.7938,403.9688 538.2,403.7031 Q537.6063,403.4219 536.9813,403.4219 Q535.6375,403.4219 534.95,404.5 Q534.2625,405.5625 534.2625,407.6563 Q534.2625,409.75 534.95,410.8281 Q535.6375,411.8906 536.9813,411.8906 Q537.6063,411.8906 538.2,411.625 Q538.7938,411.3438 539.4188,410.7656 L539.4188,413.4844 Z "/><text fill="#000000" font-family="sans-serif" font-size="12" lengthAdjust="spacingAndGlyphs" textLength="68" x="553.55" y="411.998">Controllers</text><line style="stroke: #A80036; stroke-width: 1.5;" x1="508.5" x2="637.5" y1="423.8438" y2="423.8438"/><text fill="#000000" font-family="sans-serif" font-size="11" lengthAdjust="spacingAndGlyphs" textLength="21" x="513.5" y="438.0542">app</text><text fill="#000000" font-family="sans-serif" font-size="11" lengthAdjust="spacingAndGlyphs" textLength="35" x="513.5" y="450.8589">model</text><text fill="#000000" font-family="sans-serif" font-size="11" lengthAdjust="spacingAndGlyphs" textLength="17" x="513.5" y="463.6636">gui</text><line style="stroke: #A80036; stroke-width: 1.5;" x1="508.5" x2="637.5" y1="470.2578" y2="470.2578"/><text fill="#000000" font-family="sans-serif" font-size="11" lengthAdjust="spacingAndGlyphs" textLength="88" x="513.5" y="484.4683">event_handler()</text><text fill="#000000" font-family="sans-serif" font-size="11" lengthAdjust="spacingAndGlyphs" textLength="119" x="513.5" y="497.2729">dom_event_handler()</text><!--MD5=[335f4d9be48430461c68bf6d6fdba145]
class App--><rect fill="#FEFECE" filter="url(#f113mhken79lr4)" height="112.0234" id="App" style="stroke: #A80036; stroke-width: 1.5;" width="111" x="853.5" y="595.8438"/><ellipse cx="893.25" cy="611.8438" fill="#ADD1B2" rx="11" ry="11" style="stroke: #A80036; stroke-width: 1.0;"/><path d="M896.2188,617.4844 Q895.6406,617.7813 895,617.9219 Q894.3594,618.0781 893.6563,618.0781 Q891.1563,618.0781 889.8281,616.4375 Q888.5156,614.7813 888.5156,611.6563 Q888.5156,608.5313 889.8281,606.875 Q891.1563,605.2188 893.6563,605.2188 Q894.3594,605.2188 895,605.375 Q895.6563,605.5313 896.2188,605.8281 L896.2188,608.5469 Q895.5938,607.9688 895,607.7031 Q894.4063,607.4219 893.7813,607.4219 Q892.4375,607.4219 891.75,608.5 Q891.0625,609.5625 891.0625,611.6563 Q891.0625,613.75 891.75,614.8281 Q892.4375,615.8906 893.7813,615.8906 Q894.4063,615.8906 895,615.625 Q895.5938,615.3438 896.2188,614.7656 L896.2188,617.4844 Z "/><text fill="#000000" font-family="sans-serif" font-size="12" lengthAdjust="spacingAndGlyphs" textLength="24" x="912.75" y="615.998">App</text><line style="stroke: #A80036; stroke-width: 1.5;" x1="854.5" x2="963.5" y1="627.8438" y2="627.8438"/><text fill="#000000" font-family="sans-serif" font-size="11" lengthAdjust="spacingAndGlyphs" textLength="35" x="859.5" y="642.0542">model</text><text fill="#000000" font-family="sans-serif" font-size="11" lengthAdjust="spacingAndGlyphs" textLength="58" x="859.5" y="654.8589">view state</text><line style="stroke: #A80036; stroke-width: 1.5;" x1="854.5" x2="963.5" y1="661.4531" y2="661.4531"/><text fill="#000000" font-family="sans-serif" font-size="11" lengthAdjust="spacingAndGlyphs" textLength="33" x="859.5" y="675.6636">boot()</text><text fill="#000000" font-family="sans-serif" font-size="11" lengthAdjust="spacingAndGlyphs" textLength="99" x="859.5" y="688.4683">business_logic1()</text><text fill="#000000" font-family="sans-serif" font-size="11" lengthAdjust="spacingAndGlyphs" textLength="99" x="859.5" y="701.2729">business_logic2()</text><!--MD5=[c045e12321b83266d36d22b9096c24ea]
class View--><rect fill="#FEFECE" filter="url(#f113mhken79lr4)" height="53.9375" id="View" style="stroke: #A80036; stroke-width: 1.5;" width="103" x="235.5" y="624.8438"/><ellipse cx="250.5" cy="643.8125" fill="#ADD1B2" rx="11" ry="11" style="stroke: #A80036; stroke-width: 1.0;"/><path d="M253.4688,649.4531 Q252.8906,649.75 252.25,649.8906 Q251.6094,650.0469 250.9063,650.0469 Q248.4063,650.0469 247.0781,648.4063 Q245.7656,646.75 245.7656,643.625 Q245.7656,640.5 247.0781,638.8438 Q248.4063,637.1875 250.9063,637.1875 Q251.6094,637.1875 252.25,637.3438 Q252.9063,637.5 253.4688,637.7969 L253.4688,640.5156 Q252.8438,639.9375 252.25,639.6719 Q251.6563,639.3906 251.0313,639.3906 Q249.6875,639.3906 249,640.4688 Q248.3125,641.5313 248.3125,643.625 Q248.3125,645.7188 249,646.7969 Q249.6875,647.8594 251.0313,647.8594 Q251.6563,647.8594 252.25,647.5938 Q252.8438,647.3125 253.4688,646.7344 L253.4688,649.4531 Z "/><text fill="#000000" font-family="sans-serif" font-size="12" font-style="italic" lengthAdjust="spacingAndGlyphs" textLength="75" x="262.5" y="640.9824">«GUI / DOM»</text><text fill="#000000" font-family="sans-serif" font-size="12" lengthAdjust="spacingAndGlyphs" textLength="28" x="286" y="654.9512">View</text><line style="stroke: #A80036; stroke-width: 1.5;" x1="236.5" x2="337.5" y1="662.7813" y2="662.7813"/><line style="stroke: #A80036; stroke-width: 1.5;" x1="236.5" x2="337.5" y1="670.7813" y2="670.7813"/><!--MD5=[527fedc8d6bd96cda1a741238be27956]
class Scenario1--><rect fill="#FEFECE" filter="url(#f113mhken79lr4)" height="53.9375" id="Scenario1" style="stroke: #A80036; stroke-width: 1.5;" width="278" x="1073" y="169.3438"/><ellipse cx="1088" cy="188.3125" fill="#FF7700" rx="11" ry="11" style="stroke: #A80036; stroke-width: 1.0;"/><path d="M1087.4844,188.875 Q1085.625,188.1719 1084.9688,187.4063 Q1084.3281,186.625 1084.3281,185.3125 Q1084.3281,183.625 1085.4063,182.6563 Q1086.4844,181.6875 1088.3594,181.6875 Q1089.2188,181.6875 1090.0625,181.8906 Q1090.9219,182.0781 1091.7656,182.4688 L1091.7656,184.8594 Q1090.9844,184.2969 1090.1563,184.0156 Q1089.3438,183.7188 1088.5469,183.7188 Q1087.6719,183.7188 1087.1875,184.0781 Q1086.7188,184.4375 1086.7188,185.0938 Q1086.7188,185.6094 1087.0625,185.9531 Q1087.4063,186.2813 1088.5,186.6875 L1089.5625,187.0938 Q1091.0469,187.6406 1091.75,188.5469 Q1092.4688,189.4531 1092.4688,190.8281 Q1092.4688,192.7031 1091.3594,193.625 Q1090.25,194.5469 1088,194.5469 Q1087.0781,194.5469 1086.1563,194.3281 Q1085.2344,194.1094 1084.375,193.6875 L1084.375,191.1563 Q1085.3438,191.8438 1086.2656,192.1875 Q1087.1875,192.5313 1088.0781,192.5313 Q1088.9844,192.5313 1089.4844,192.125 Q1089.9844,191.7031 1089.9844,190.9688 Q1089.9844,190.4063 1089.6406,190 Q1089.3125,189.5781 1088.6875,189.3281 L1087.4844,188.875 Z "/><text fill="#000000" font-family="sans-serif" font-size="12" font-style="italic" lengthAdjust="spacingAndGlyphs" textLength="77" x="1100" y="185.4824">«start here»</text><text fill="#000000" font-family="sans-serif" font-size="12" lengthAdjust="spacingAndGlyphs" textLength="63" x="1107" y="199.4512">Scenario1</text><rect fill="#FFFFFF" height="15.9688" style="stroke: #000000; stroke-width: 1.0; stroke-dasharray: 2.0,2.0;" width="171" x="1183" y="166.3438"/><text fill="#000000" font-family="sans-serif" font-size="12" font-style="italic" lengthAdjust="spacingAndGlyphs" textLength="161" x="1188" y="178.4824">Instance of App() created</text><line style="stroke: #A80036; stroke-width: 1.5;" x1="1074" x2="1350" y1="207.2813" y2="207.2813"/><line style="stroke: #A80036; stroke-width: 1.5;" x1="1074" x2="1350" y1="215.2813" y2="215.2813"/><!--MD5=[3ddfedd257689796a17452cc1b536714]
class Scenario2--><rect fill="#FEFECE" filter="url(#f113mhken79lr4)" height="53.9375" id="Scenario2" style="stroke: #A80036; stroke-width: 1.5;" width="340" x="6" y="169.3438"/><ellipse cx="21" cy="188.3125" fill="#FF7700" rx="11" ry="11" style="stroke: #A80036; stroke-width: 1.0;"/><path d="M20.4844,188.875 Q18.625,188.1719 17.9688,187.4063 Q17.3281,186.625 17.3281,185.3125 Q17.3281,183.625 18.4063,182.6563 Q19.4844,181.6875 21.3594,181.6875 Q22.2188,181.6875 23.0625,181.8906 Q23.9219,182.0781 24.7656,182.4688 L24.7656,184.8594 Q23.9844,184.2969 23.1563,184.0156 Q22.3438,183.7188 21.5469,183.7188 Q20.6719,183.7188 20.1875,184.0781 Q19.7188,184.4375 19.7188,185.0938 Q19.7188,185.6094 20.0625,185.9531 Q20.4063,186.2813 21.5,186.6875 L22.5625,187.0938 Q24.0469,187.6406 24.75,188.5469 Q25.4688,189.4531 25.4688,190.8281 Q25.4688,192.7031 24.3594,193.625 Q23.25,194.5469 21,194.5469 Q20.0781,194.5469 19.1563,194.3281 Q18.2344,194.1094 17.375,193.6875 L17.375,191.1563 Q18.3438,191.8438 19.2656,192.1875 Q20.1875,192.5313 21.0781,192.5313 Q21.9844,192.5313 22.4844,192.125 Q22.9844,191.7031 22.9844,190.9688 Q22.9844,190.4063 22.6406,190 Q22.3125,189.5781 21.6875,189.3281 L20.4844,188.875 Z "/><text fill="#000000" font-family="sans-serif" font-size="12" font-style="italic" lengthAdjust="spacingAndGlyphs" textLength="77" x="33" y="185.4824">«start here»</text><text fill="#000000" font-family="sans-serif" font-size="12" lengthAdjust="spacingAndGlyphs" textLength="63" x="40" y="199.4512">Scenario2</text><rect fill="#FFFFFF" height="15.9688" style="stroke: #000000; stroke-width: 1.0; stroke-dasharray: 2.0,2.0;" width="233" x="116" y="166.3438"/><text fill="#000000" font-family="sans-serif" font-size="12" font-style="italic" lengthAdjust="spacingAndGlyphs" textLength="223" x="121" y="178.4824">User interacts with DOM GUI control</text><line style="stroke: #A80036; stroke-width: 1.5;" x1="7" x2="345" y1="207.2813" y2="207.2813"/><line style="stroke: #A80036; stroke-width: 1.5;" x1="7" x2="345" y1="215.2813" y2="215.2813"/><path d="M1386,77.8438 L1386,314.8359 L1760,314.8359 L1760,87.8438 L1750,77.8438 L1386,77.8438 " fill="#FBFB77" filter="url(#f113mhken79lr4)" style="stroke: #A80036; stroke-width: 1.0;"/><path d="M1750,77.8438 L1750,87.8438 L1760,87.8438 L1750,77.8438 " fill="#FBFB77" style="stroke: #A80036; stroke-width: 1.0;"/><text fill="#000000" font-family="sans-serif" font-size="13" lengthAdjust="spacingAndGlyphs" textLength="349" x="1392" y="94.9106">This "literate code map" shows the MVC-A Architecture</text><text fill="#000000" font-family="sans-serif" font-size="13" lengthAdjust="spacingAndGlyphs" textLength="261" x="1392" y="110.0435">which means MVC plus App Architecture.</text><text fill="#000000" font-family="sans-serif" font-size="13" lengthAdjust="spacingAndGlyphs" textLength="0" x="1396" y="125.1763"/><text fill="#000000" font-family="sans-serif" font-size="13" lengthAdjust="spacingAndGlyphs" textLength="305" x="1392" y="140.3091">This architectural design pattern clearly defines:</text><text fill="#000000" font-family="sans-serif" font-size="13" lengthAdjust="spacingAndGlyphs" textLength="0" x="1396" y="155.4419"/><ellipse cx="1397.5" cy="166.1406" fill="#000000" rx="2.5" ry="2.5" style="stroke: #000000; stroke-width: 0.0;"/><text fill="#000000" font-family="sans-serif" font-size="13" lengthAdjust="spacingAndGlyphs" textLength="220" x="1403" y="170.5747">the role mediating Controllers play</text><ellipse cx="1397.5" cy="181.2734" fill="#000000" rx="2.5" ry="2.5" style="stroke: #000000; stroke-width: 0.0;"/><text fill="#000000" font-family="sans-serif" font-size="13" lengthAdjust="spacingAndGlyphs" textLength="170" x="1403" y="185.7075">the need for an App object</text><ellipse cx="1397.5" cy="196.4063" fill="#000000" rx="2.5" ry="2.5" style="stroke: #000000; stroke-width: 0.0;"/><text fill="#000000" font-family="sans-serif" font-size="13" lengthAdjust="spacingAndGlyphs" textLength="199" x="1403" y="200.8403">the direction and flow of events</text><text fill="#000000" font-family="sans-serif" font-size="13" lengthAdjust="spacingAndGlyphs" textLength="0" x="1396" y="215.9731"/><text fill="#000000" font-family="sans-serif" font-size="13" lengthAdjust="spacingAndGlyphs" textLength="286" x="1392" y="231.106">The App object is central to this architecture:</text><text fill="#000000" font-family="sans-serif" font-size="13" lengthAdjust="spacingAndGlyphs" textLength="0" x="1396" y="246.2388"/><ellipse cx="1397.5" cy="256.9375" fill="#000000" rx="2.5" ry="2.5" style="stroke: #000000; stroke-width: 0.0;"/><text fill="#000000" font-family="sans-serif" font-size="13" lengthAdjust="spacingAndGlyphs" textLength="130" x="1403" y="261.3716">holds refs to models</text><ellipse cx="1397.5" cy="272.0703" fill="#000000" rx="2.5" ry="2.5" style="stroke: #000000; stroke-width: 0.0;"/><text fill="#000000" font-family="sans-serif" font-size="13" lengthAdjust="spacingAndGlyphs" textLength="119" x="1403" y="276.5044">creates controllers</text><ellipse cx="1397.5" cy="287.2031" fill="#000000" rx="2.5" ry="2.5" style="stroke: #000000; stroke-width: 0.0;"/><text fill="#000000" font-family="sans-serif" font-size="13" lengthAdjust="spacingAndGlyphs" textLength="102" x="1403" y="291.6372">holds view state</text><ellipse cx="1397.5" cy="302.3359" fill="#000000" rx="2.5" ry="2.5" style="stroke: #000000; stroke-width: 0.0;"/><text fill="#000000" font-family="sans-serif" font-size="13" lengthAdjust="spacingAndGlyphs" textLength="248" x="1403" y="306.77">contains some business logic methods</text><!--MD5=[7d44fd0a3837572a336f5d849720dbb4]
link App to Model--><path d="M924.9023,595.7991 C928.629,576.2256 930.7972,554.0902 928,533.8438 C912.8549,424.2213 868.2302,301.1093 843.3169,238.2331 " fill="none" id="App-&gt;Model" style="stroke: #A80036; stroke-width: 1.0;"/><polygon fill="#A80036" points="841.4108,233.4429,841.0219,243.284,843.2595,238.0885,848.455,240.3261,841.4108,233.4429" style="stroke: #A80036; stroke-width: 1.0;"/><text fill="#000000" font-family="sans-serif" font-size="13" lengthAdjust="spacingAndGlyphs" textLength="48" x="923" y="452.4106">2. owns</text><text fill="#000000" font-family="sans-serif" font-size="13" lengthAdjust="spacingAndGlyphs" textLength="7" x="836.3835" y="252.9398">*</text><!--MD5=[7d44fd0a3837572a336f5d849720dbb4]
link App to Model--><path d="M943.8428,595.6471 C972.2073,542.536 1003.9406,460.9249 980,391.8438 C957.2716,326.2606 902.4252,266.0021 864.7206,230.2113 " fill="none" id="App-&gt;Model-1" style="stroke: #A80036; stroke-width: 1.0;"/><polygon fill="#A80036" points="860.6697,226.3974,864.4805,235.4791,864.3101,229.8248,869.9644,229.6544,860.6697,226.3974" style="stroke: #A80036; stroke-width: 1.0;"/><text fill="#000000" font-family="sans-serif" font-size="13" lengthAdjust="spacingAndGlyphs" textLength="70" x="989" y="452.4106">8. modifies</text><!--MD5=[fa5cbba07ca2a45807c1da0063261dac]
link Model to App--><path d="M816.0741,233.5971 C801.9992,294.8347 783.2066,418.4824 834,503.8438 C847.6438,526.773 870.4969,512.1284 886,533.8438 C897.7389,550.2865 903.8888,571.1652 906.998,590.7745 " fill="none" id="Model-&gt;App" style="stroke: #00BFFF; stroke-width: 1.0; stroke-dasharray: 7.0,7.0;"/><polygon fill="#00BFFF" points="907.7245,595.7291,910.3764,586.2439,906.9991,590.782,902.4611,587.4046,907.7245,595.7291" style="stroke: #00BFFF; stroke-width: 1.0;"/><text fill="#00BFFF" font-family="sans-serif" font-size="13" lengthAdjust="spacingAndGlyphs" textLength="52" x="835" y="452.4106">9. event</text><!--MD5=[29e5572c3d09c6b445394b9c6bb55e57]
link Controllers to Model--><path d="M581.2012,391.6606 C585.4986,375.4683 592.0416,358.5046 602,344.8438 C649.7943,279.2804 736.0114,234.2691 786.4012,212.14 " fill="none" id="Controllers-&gt;Model" style="stroke: #A80036; stroke-width: 1.0;"/><polygon fill="#A80036" points="791.1633,210.07,781.3148,209.9896,786.5778,212.0634,784.5041,217.3264,791.1633,210.07" style="stroke: #A80036; stroke-width: 1.0;"/><text fill="#000000" font-family="sans-serif" font-size="13" lengthAdjust="spacingAndGlyphs" textLength="59" x="603" y="357.9106">7. modify</text><!--MD5=[3b10ef7f195f99fed435b58684ccff70]
link Model to Controllers--><path d="M791.6127,233.4867 C759.8481,267.4699 711.0564,318.8489 667,361.8438 C658.2045,370.4274 648.7989,379.3362 639.4624,388.0247 " fill="none" id="Model-&gt;Controllers" style="stroke: #00BFFF; stroke-width: 1.0; stroke-dasharray: 7.0,7.0;"/><polygon fill="#00BFFF" points="635.4672,391.7333,644.7847,388.5419,639.1317,388.3316,639.342,382.6786,635.4672,391.7333" style="stroke: #00BFFF; stroke-width: 1.0;"/><text fill="#00BFFF" font-family="sans-serif" font-size="13" lengthAdjust="spacingAndGlyphs" textLength="52" x="681" y="357.9106">9. event</text><!--MD5=[8732cf4d0d97d18d856e057722ac372c]
link App to Controllers--><path d="M853.3892,628.1467 C819.1654,612.5027 775.0956,590.4055 739,565.8438 C721.3016,553.8007 719.9699,546.8935 703,533.8438 C684.1535,519.351 662.9317,504.6769 643.1847,491.6527 " fill="none" id="App-&gt;Controllers" style="stroke: #A80036; stroke-width: 1.0;"/><polygon fill="#A80036" points="638.7313,488.7269,644.0569,497.0117,642.9101,491.4723,648.4495,490.3255,638.7313,488.7269" style="stroke: #A80036; stroke-width: 1.0;"/><text fill="#000000" font-family="sans-serif" font-size="13" lengthAdjust="spacingAndGlyphs" textLength="64" x="740" y="554.4106">3. creates</text><!--MD5=[8732cf4d0d97d18d856e057722ac372c]
link App to Controllers--><path d="M866.0225,595.7579 C845.3983,570.0019 822.329,543.1322 809,533.8438 C758.9314,498.953 693.0789,476.5091 643.6614,463.3303 " fill="none" id="App-&gt;Controllers-1" style="stroke: #00BFFF; stroke-width: 1.0; stroke-dasharray: 7.0,7.0;"/><polygon fill="#00BFFF" points="638.6293,462.0051,646.3138,468.1653,643.4644,463.2785,648.3513,460.4291,638.6293,462.0051" style="stroke: #00BFFF; stroke-width: 1.0;"/><text fill="#00BFFF" font-family="sans-serif" font-size="13" lengthAdjust="spacingAndGlyphs" textLength="36" x="841" y="554.4106">event</text><!--MD5=[465b39aec0e40ffb0f6d1835ec62eb99]
link Controllers to App--><path d="M547.7197,504.1183 C542.1767,525.3759 541.424,548.5748 555,565.8438 C590.8212,611.4093 756.8078,635.812 848.2125,645.9986 " fill="none" id="Controllers-&gt;App" style="stroke: #A80036; stroke-width: 1.0;"/><polygon fill="#A80036" points="853.3153,646.5612,844.8079,641.5988,848.3454,646.0131,843.9311,649.5506,853.3153,646.5612" style="stroke: #A80036; stroke-width: 1.0;"/><text fill="#000000" font-family="sans-serif" font-size="13" lengthAdjust="spacingAndGlyphs" textLength="134" x="556" y="546.9106">7. call business logic/</text><text fill="#000000" font-family="sans-serif" font-size="13" lengthAdjust="spacingAndGlyphs" textLength="112" x="571" y="562.0435">access view state</text><!--MD5=[a42d6c11755756d1d5174daff1d1872c]
link Controllers to View--><path d="M507.3057,459.8885 C412.8511,477.8639 248.0812,511.9356 231,533.8438 C210.3537,560.3246 232.3289,595.6514 254.5263,620.7307 " fill="none" id="Controllers-&gt;View" style="stroke: #A80036; stroke-width: 1.0;"/><polygon fill="#A80036" points="258.0842,624.6648,255.0142,615.3066,254.7305,620.9563,249.0807,620.6725,258.0842,624.6648" style="stroke: #A80036; stroke-width: 1.0;"/><text fill="#000000" font-family="sans-serif" font-size="13" lengthAdjust="spacingAndGlyphs" textLength="64" x="232" y="554.4106">4. creates</text><!--MD5=[a42d6c11755756d1d5174daff1d1872c]
link Controllers to View--><path d="M507.4155,457.1142 C455.3593,467.5955 383.7928,489.3938 337,533.8438 C312.8787,556.7574 299.8772,593.1623 293.2349,619.4802 " fill="none" id="Controllers-&gt;View-1" style="stroke: #A80036; stroke-width: 1.0;"/><polygon fill="#A80036" points="291.9898,624.6023,298.0026,616.8019,293.1709,619.7438,290.229,614.9121,291.9898,624.6023" style="stroke: #A80036; stroke-width: 1.0;"/><text fill="#000000" font-family="sans-serif" font-size="13" lengthAdjust="spacingAndGlyphs" textLength="87" x="338" y="554.4106">10. maintains</text><!--MD5=[e6f99e04e133d6143603ac2a5666da84]
link View to Controllers--><path d="M337.0914,624.7544 C365.2126,608.8074 400.4756,587.5539 430,565.8438 C447.2465,553.1619 449.6521,547.6646 466,533.8438 C477.855,523.8213 490.6044,513.3313 503.0256,503.2609 " fill="none" id="View-&gt;Controllers" style="stroke: #32CD32; stroke-width: 1.0; stroke-dasharray: 7.0,7.0;"/><polygon fill="#32CD32" points="507.2236,499.863,497.7114,502.4161,503.3372,503.0087,502.7446,508.6344,507.2236,499.863" style="stroke: #32CD32; stroke-width: 1.0;"/><text fill="#32CD32" font-family="sans-serif" font-size="13" lengthAdjust="spacingAndGlyphs" textLength="47" x="467" y="546.9106">6. DOM</text><text fill="#000000" font-family="sans-serif" font-size="13" lengthAdjust="spacingAndGlyphs" textLength="0" x="518" y="546.9106"/><text fill="#000000" font-family="sans-serif" font-size="13" lengthAdjust="spacingAndGlyphs" textLength="0" x="476.5" y="562.0435"/><text fill="#32CD32" font-family="sans-serif" font-size="13" lengthAdjust="spacingAndGlyphs" textLength="36" x="476.5" y="562.0435">event</text><!--MD5=[c840fc8ec2f954a830edd539b9eb92ee]
link Scenario1 to App--><path d="M1203.1887,223.7104 C1184.2999,279.8174 1136.0315,410.456 1068,503.8438 C1039.9407,542.3612 1000.842,578.9136 968.4387,606.0561 " fill="none" id="Scenario1-&gt;App" style="stroke: #A80036; stroke-width: 1.0; stroke-dasharray: 7.0,7.0;"/><polygon fill="#A80036" points="964.5214,609.319,973.9967,606.632,968.3631,606.1188,968.8764,600.4853,964.5214,609.319" style="stroke: #A80036; stroke-width: 1.0;"/><text fill="#000000" font-family="sans-serif" font-size="13" lengthAdjust="spacingAndGlyphs" textLength="41" x="1134" y="452.4106">1. new</text><!--MD5=[acfafaaf3b8a057e4af4e6686fe1e44f]
link Scenario2 to View--><path d="M173.6173,223.6522 C169.2066,286.7678 164.3793,446.4775 215,565.8438 C223.6905,586.3365 238.976,605.6756 253.234,620.8052 " fill="none" id="Scenario2-&gt;View" style="stroke: #A80036; stroke-width: 1.0; stroke-dasharray: 7.0,7.0;"/><polygon fill="#A80036" points="256.8321,624.5592,253.492,615.294,253.3722,620.9496,247.7166,620.8298,256.8321,624.5592" style="stroke: #A80036; stroke-width: 1.0;"/><text fill="#000000" font-family="sans-serif" font-size="13" lengthAdjust="spacingAndGlyphs" textLength="116" x="195" y="452.4106">5. user interaction</text><text fill="#888888" font-family="sans-serif" font-size="10" lengthAdjust="spacingAndGlyphs" textLength="188" x="795" y="727.126">Generated by GitUml www.gituml.com</text><!--MD5=[9460e2802d672eabdb9cf8765a8969d5]
@startuml
header
MVC-A Architecture - MVC plus App Architecture, 
emphasizing Controllers Roles

Also on https://www.gituml.com/editz/136

by Andy Bulka 2020
endheader

center footer Generated by GitUml www.gituml.com

class Model {
  data
  setters
}

class Controllers {
  app
  model
  gui
  event_handler()
  dom_event_handler()
}

class App {
  model
  view state
  boot()
  business_logic1()
  business_logic2() 
}

class View << GUI / DOM >> {
}


App - -> "*" Model : 2. owns
App - -> Model : 8. modifies
Model ..> App #DeepSkyBlue : <color:DeepSkyBlue>9. event</color>

Controllers - -> Model : 7. modify
Model ..> Controllers #DeepSkyBlue : <color:DeepSkyBlue>9. event</color>

App - -> Controllers : 3. creates
App ..> Controllers #DeepSkyBlue : <color:DeepSkyBlue>event</color>
Controllers - -> App : 7. call business logic/ \n access view state

Controllers - -> View : 4. creates
Controllers - -> View : 10. maintains
View ..> Controllers #LimeGreen : <color:LimeGreen>6. DOM</color> \n <color:LimeGreen>event</color>

class Scenario1 < Instance of App() created ><< (S,#FF7700) start here >>
class Scenario2 < User interacts with DOM GUI control ><< (S,#FF7700) start here >>

Scenario1 ...> App : 1. new
Scenario2 ...> View : 5. user interaction


note as N9727
This "literate code map" shows the MVC-A Architecture 
which means MVC plus App Architecture.

This architectural design pattern clearly defines:

* the role mediating Controllers play
* the need for an App object
* the direction and flow of events

The App object is central to this architecture:

* holds refs to models
* creates controllers
* holds view state
* contains some business logic methods
end note
@enduml

PlantUML version 1.2020.08(Sun Apr 26 14:08:22 UTC 2020)
(GPL source distribution)
Java Runtime: OpenJDK Runtime Environment
JVM: OpenJDK 64-Bit Server VM
Java Version: 1.8.0_252-heroku-b09
Operating System: Linux
Default Encoding: UTF-8
Language: en
Country: US
--></g></svg>