<?xml version="1.0" encoding="UTF-8" standalone="no"?><svg xmlns="http://www.w3.org/2000/svg" xmlns:xlink="http://www.w3.org/1999/xlink" contentScriptType="application/ecmascript" contentStyleType="text/css" height="789px" preserveAspectRatio="none" style="width:2186px;height:789px;" version="1.1" viewBox="0 0 2186 789" width="2186px" zoomAndPan="magnify"><defs><filter height="300%" id="f1h0mtu37pi1j6" width="300%" x="-1" y="-1"><feGaussianBlur result="blurOut" stdDeviation="2.0"/><feColorMatrix in="blurOut" result="blurOut2" type="matrix" values="0 0 0 0 0 0 0 0 0 0 0 0 0 0 0 0 0 0 .4 0"/><feOffset dx="4.0" dy="4.0" in="blurOut2" result="blurOut3"/><feBlend in="SourceGraphic" in2="blurOut3" mode="normal"/></filter></defs><g><text fill="#D87093" font-family="sans-serif" font-size="20" lengthAdjust="spacingAndGlyphs" textLength="189" x="1985" y="18.5645">MVCA Architecture</text><text fill="#888888" font-family="sans-serif" font-size="10" lengthAdjust="spacingAndGlyphs" textLength="96" x="2078" y="32.5635">by Andy Bulka 2020</text><text fill="#888888" font-family="sans-serif" font-size="10" lengthAdjust="spacingAndGlyphs" textLength="22" x="2152" y="44.2041">V2.3</text><text fill="#000000" font-family="sans-serif" font-size="18" lengthAdjust="spacingAndGlyphs" textLength="316" x="926" y="63.2705">Controller "mediates" between GUI</text><text fill="#000000" font-family="sans-serif" font-size="18" lengthAdjust="spacingAndGlyphs" textLength="176" x="999" y="84.2236">and everything else</text><text fill="#000000" font-family="sans-serif" font-size="18" lengthAdjust="spacingAndGlyphs" textLength="0" x="1090" y="105.1768"/><!--MD5=[bf40003cc821fd9278d010b6c7b2a656]
cluster App and Model--><polygon fill="#FFFFFF" filter="url(#f1h0mtu37pi1j6)" points="1929.5,125.4219,2052.5,125.4219,2059.5,147.7188,2147.5,147.7188,2147.5,777.4219,1929.5,777.4219,1929.5,125.4219" style="stroke: #000000; stroke-width: 1.5;"/><line style="stroke: #000000; stroke-width: 1.5;" x1="1929.5" x2="2059.5" y1="147.7188" y2="147.7188"/><text fill="#000000" font-family="sans-serif" font-size="14" font-weight="bold" lengthAdjust="spacingAndGlyphs" textLength="117" x="1933.5" y="140.417">App and Model</text><!--MD5=[1f2cfc53d9d308f53762fd0fcbaa4873]
cluster Controller--><polygon fill="#D87093" filter="url(#f1h0mtu37pi1j6)" points="1657.5,398.4219,1742.5,398.4219,1749.5,420.7188,1921.5,420.7188,1921.5,545.4219,1657.5,545.4219,1657.5,398.4219" style="stroke: #000000; stroke-width: 1.5;"/><line style="stroke: #000000; stroke-width: 1.5;" x1="1657.5" x2="1749.5" y1="420.7188" y2="420.7188"/><text fill="#000000" font-family="sans-serif" font-size="14" font-weight="bold" lengthAdjust="spacingAndGlyphs" textLength="79" x="1661.5" y="413.417">Controller</text><!--MD5=[7e20e022571e30ec1001cf6eabd7f3e2]
class Model--><rect fill="#FEFECE" filter="url(#f1h0mtu37pi1j6)" height="124.8281" id="Model" style="stroke: #A80036; stroke-width: 1.5;" width="203" x="1937" y="644.4219"/><ellipse cx="2015.75" cy="660.4219" fill="#FF7700" rx="11" ry="11" style="stroke: #A80036; stroke-width: 1.0;"/><path d="M2011.4688,654.0313 L2014.3906,654.0313 L2015.8594,659.4688 L2017.3281,654.0313 L2020.2656,654.0313 L2020.2656,666.4219 L2018.1563,666.4219 L2018.1563,656.5 L2016.8438,661.9219 L2014.9063,661.9219 L2013.5781,656.5 L2013.5781,666.4219 L2011.4688,666.4219 L2011.4688,654.0313 Z "/><text fill="#000000" font-family="sans-serif" font-size="12" lengthAdjust="spacingAndGlyphs" textLength="37" x="2036.25" y="664.5762">Model</text><line style="stroke: #A80036; stroke-width: 1.5;" x1="1938" x2="2139" y1="676.4219" y2="676.4219"/><text fill="#000000" font-family="sans-serif" font-size="11" lengthAdjust="spacingAndGlyphs" textLength="27" x="1943" y="690.6323">attr1</text><text fill="#000000" font-family="sans-serif" font-size="11" lengthAdjust="spacingAndGlyphs" textLength="27" x="1943" y="703.437">attr2</text><text fill="#000000" font-family="sans-serif" font-size="11" lengthAdjust="spacingAndGlyphs" textLength="27" x="1943" y="716.2417">attr3</text><line style="stroke: #A80036; stroke-width: 1.5;" x1="1938" x2="2139" y1="722.8359" y2="722.8359"/><text fill="#000000" font-family="sans-serif" font-size="11" lengthAdjust="spacingAndGlyphs" textLength="75" x="1943" y="737.0464">set_attr1(val)</text><text fill="#000000" font-family="sans-serif" font-size="11" lengthAdjust="spacingAndGlyphs" textLength="75" x="1943" y="749.8511">set_attr2(val)</text><text fill="#00BFFF" font-family="sans-serif" font-size="11" font-style="italic" lengthAdjust="spacingAndGlyphs" textLength="104" x="2030" y="749.8511">// broadcast event</text><text fill="#000000" font-family="sans-serif" font-size="11" lengthAdjust="spacingAndGlyphs" textLength="58" x="1943" y="762.6558">notify_all()</text><text fill="#00BFFF" font-family="sans-serif" font-size="11" font-style="italic" lengthAdjust="spacingAndGlyphs" textLength="104" x="2021" y="762.6558">// broadcast event</text><!--MD5=[335f4d9be48430461c68bf6d6fdba145]
class App--><rect fill="#FEFECE" filter="url(#f1h0mtu37pi1j6)" height="112.0234" id="App" style="stroke: #A80036; stroke-width: 1.5;" width="198" x="1939.5" y="152.4219"/><ellipse cx="2022.25" cy="168.4219" fill="#FF7700" rx="11" ry="11" style="stroke: #A80036; stroke-width: 1.0;"/><path d="M2022.3594,163.7656 L2021.2031,168.8438 L2023.5313,168.8438 L2022.3594,163.7656 Z M2020.875,161.5313 L2023.8594,161.5313 L2027.2188,173.9219 L2024.7656,173.9219 L2024,170.8594 L2020.7188,170.8594 L2019.9688,173.9219 L2017.5313,173.9219 L2020.875,161.5313 Z "/><text fill="#000000" font-family="sans-serif" font-size="12" lengthAdjust="spacingAndGlyphs" textLength="24" x="2042.75" y="172.5762">App</text><line style="stroke: #A80036; stroke-width: 1.5;" x1="1940.5" x2="2136.5" y1="184.4219" y2="184.4219"/><text fill="#000000" font-family="sans-serif" font-size="11" lengthAdjust="spacingAndGlyphs" textLength="35" x="1945.5" y="198.6323">model</text><text fill="#000000" font-family="sans-serif" font-size="11" lengthAdjust="spacingAndGlyphs" textLength="58" x="1945.5" y="211.437">view-state</text><line style="stroke: #A80036; stroke-width: 1.5;" x1="1940.5" x2="2136.5" y1="218.0313" y2="218.0313"/><text fill="#000000" font-family="sans-serif" font-size="11" lengthAdjust="spacingAndGlyphs" textLength="99" x="1945.5" y="232.2417">business_logic1()</text><text fill="#000000" font-family="sans-serif" font-size="11" lengthAdjust="spacingAndGlyphs" textLength="99" x="1945.5" y="245.0464">business_logic2()</text><text fill="#000000" font-family="sans-serif" font-size="11" lengthAdjust="spacingAndGlyphs" textLength="58" x="1945.5" y="257.8511">notify_all()</text><text fill="#00BFFF" font-family="sans-serif" font-size="11" font-style="italic" lengthAdjust="spacingAndGlyphs" textLength="104" x="2027.5" y="257.8511">// broadcast event</text><!--MD5=[1d7ba1c7002d54515419844fbd155368]
class Controller--><rect fill="#FEFECE" filter="url(#f1h0mtu37pi1j6)" height="112.0234" id="Controller" style="stroke: #A80036; stroke-width: 1.5;" width="248" x="1665.5" y="425.4219"/><ellipse cx="1754.75" cy="441.4219" fill="#FF7700" rx="11" ry="11" style="stroke: #A80036; stroke-width: 1.0;"/><path d="M1757.7188,447.0625 Q1757.1406,447.3594 1756.5,447.5 Q1755.8594,447.6563 1755.1563,447.6563 Q1752.6563,447.6563 1751.3281,446.0156 Q1750.0156,444.3594 1750.0156,441.2344 Q1750.0156,438.1094 1751.3281,436.4531 Q1752.6563,434.7969 1755.1563,434.7969 Q1755.8594,434.7969 1756.5,434.9531 Q1757.1563,435.1094 1757.7188,435.4063 L1757.7188,438.125 Q1757.0938,437.5469 1756.5,437.2813 Q1755.9063,437 1755.2813,437 Q1753.9375,437 1753.25,438.0781 Q1752.5625,439.1406 1752.5625,441.2344 Q1752.5625,443.3281 1753.25,444.4063 Q1753.9375,445.4688 1755.2813,445.4688 Q1755.9063,445.4688 1756.5,445.2031 Q1757.0938,444.9219 1757.7188,444.3438 L1757.7188,447.0625 Z "/><text fill="#000000" font-family="sans-serif" font-size="12" lengthAdjust="spacingAndGlyphs" textLength="61" x="1775.25" y="445.5762">Controller</text><line style="stroke: #A80036; stroke-width: 1.5;" x1="1666.5" x2="1912.5" y1="457.4219" y2="457.4219"/><text fill="#000000" font-family="sans-serif" font-size="11" lengthAdjust="spacingAndGlyphs" textLength="25" x="1671.5" y="471.6323">view</text><text fill="#000000" font-family="sans-serif" font-size="11" lengthAdjust="spacingAndGlyphs" textLength="21" x="1671.5" y="484.437">app</text><text fill="#000000" font-family="sans-serif" font-size="11" lengthAdjust="spacingAndGlyphs" textLength="35" x="1671.5" y="497.2417">model</text><line style="stroke: #A80036; stroke-width: 1.5;" x1="1666.5" x2="1912.5" y1="503.8359" y2="503.8359"/><text fill="#000000" font-family="sans-serif" font-size="11" lengthAdjust="spacingAndGlyphs" textLength="82" x="1671.5" y="518.0464">on_gui_event()</text><text fill="#000000" font-family="sans-serif" font-size="11" lengthAdjust="spacingAndGlyphs" textLength="59" x="1671.5" y="530.8511">on_notify()</text><text fill="#00BFFF" font-family="sans-serif" font-size="11" font-style="italic" lengthAdjust="spacingAndGlyphs" textLength="161" x="1746.5" y="530.8511">// listen to broadcast events</text><!--MD5=[c045e12321b83266d36d22b9096c24ea]
class View--><rect fill="#FEFECE" filter="url(#f1h0mtu37pi1j6)" height="179.5391" id="View" style="stroke: #A80036; stroke-width: 1.5;" width="828" x="1076.5" y="118.4219"/><ellipse cx="1472.25" cy="134.4219" fill="#FF7700" rx="11" ry="11" style="stroke: #A80036; stroke-width: 1.0;"/><path d="M1472.3594,138.875 L1474.5469,128.5313 L1477.0156,128.5313 L1474.0625,140.9219 L1470.6719,140.9219 L1467.7188,128.5313 L1470.1875,128.5313 L1472.3594,138.875 Z "/><text fill="#000000" font-family="sans-serif" font-size="12" lengthAdjust="spacingAndGlyphs" textLength="28" x="1492.75" y="138.5762">View</text><line style="stroke: #A80036; stroke-width: 1.5;" x1="1077.5" x2="1903.5" y1="150.4219" y2="150.4219"/><text fill="#000000" font-family="sans-serif" font-size="11" lengthAdjust="spacingAndGlyphs" textLength="43" x="1082.5" y="164.6323">buttons</text><text fill="#000000" font-family="sans-serif" font-size="11" lengthAdjust="spacingAndGlyphs" textLength="60" x="1082.5" y="177.437">text inputs</text><text fill="#000000" font-family="sans-serif" font-size="11" lengthAdjust="spacingAndGlyphs" textLength="91" x="1082.5" y="190.2417">checkbox inputs</text><text fill="#000000" font-family="sans-serif" font-size="11" font-style="italic" lengthAdjust="spacingAndGlyphs" textLength="21" x="1082.5" y="203.0464">etc.</text><line style="stroke: #A80036; stroke-width: 1.0;" x1="1077.5" x2="1903.5" y1="209.6406" y2="209.6406"/><text fill="#000000" font-family="monospace" font-size="14" lengthAdjust="spacingAndGlyphs" textLength="816" x="1082.5" y="226.6357">(Cannot decode: https://github.com/abulka/todomvc-oo/raw/master/docs_other/images/mgm-pattern-gui.png)</text><text fill="#000000" font-family="sans-serif" font-size="11" lengthAdjust="spacingAndGlyphs" textLength="0" x="1086.5" y="240.1479"/><text fill="#000000" font-family="sans-serif" font-size="11" lengthAdjust="spacingAndGlyphs" textLength="86" x="1082.5" y="252.9526">View is the GUI</text><text fill="#000000" font-family="sans-serif" font-size="11" lengthAdjust="spacingAndGlyphs" textLength="0" x="1086.5" y="265.7573"/><text fill="#000000" font-family="sans-serif" font-size="11" lengthAdjust="spacingAndGlyphs" textLength="109" x="1082.5" y="278.562">e.g. DOM elements</text><text fill="#000000" font-family="sans-serif" font-size="11" lengthAdjust="spacingAndGlyphs" textLength="126" x="1082.5" y="291.3667">e.g. GUI user controls</text><path d="M6,187.9219 L6,229.3516 L955,229.3516 L955,197.9219 L945,187.9219 L6,187.9219 " fill="#FFFFFF" filter="url(#f1h0mtu37pi1j6)" style="stroke: #A80036; stroke-width: 1.0;"/><path d="M945,187.9219 L945,197.9219 L955,197.9219 L945,187.9219 " fill="#FFFFFF" style="stroke: #A80036; stroke-width: 1.0;"/><text fill="#000000" font-family="sans-serif" font-size="13" lengthAdjust="spacingAndGlyphs" textLength="30" x="12" y="204.9888">User</text><text fill="#000000" font-family="monospace" font-size="14" lengthAdjust="spacingAndGlyphs" textLength="928" x="12" y="221.0498">(Cannot decode: https://github.com/abulka/todomvc-oo/raw/master/docs_other/images/mgm-pattern-user-facing-right.png)</text><!--MD5=[01a2e04289eefa46970f9de88ad0aba9]
link Controller to View--><path d="M1702.913,425.2787 C1687.6701,414.2826 1672.2856,402.4217 1658.5,390.4219 C1627.9249,363.8075 1597.0873,332.1153 1570.3264,302.6938 " fill="none" id="Controller-&gt;View" style="stroke: #A80036; stroke-width: 1.0;"/><polygon fill="#A80036" points="1566.7469,298.7453,1569.8282,308.0997,1570.1051,302.4496,1575.7552,302.7265,1566.7469,298.7453" style="stroke: #A80036; stroke-width: 1.0;"/><text fill="#000000" font-family="sans-serif" font-size="13" lengthAdjust="spacingAndGlyphs" textLength="78" x="1679" y="356.4888">update View</text><text fill="#000000" font-family="sans-serif" font-size="13" lengthAdjust="spacingAndGlyphs" textLength="0" x="1663.5" y="371.6216"/><text fill="#000000" font-family="sans-serif" font-size="13" font-style="italic" lengthAdjust="spacingAndGlyphs" textLength="117" x="1663.5" y="371.6216">e.g. set DOM attrs</text><!--MD5=[57070e04af1ab79c5a79c6aefe469b18]
link View to Controller--><path d="M1483.548,298.6395 C1485.6028,330.7265 1493.5748,365.1288 1514.5,390.4219 C1534.2212,414.2597 1598.5114,436.2046 1659.9726,452.5696 " fill="none" id="View-&gt;Controller" style="stroke: #008000; stroke-width: 1.0; stroke-dasharray: 7.0,7.0;"/><polygon fill="#008000" points="1665.1483,453.9364,1657.468,447.7709,1660.314,452.6597,1655.4253,455.5057,1665.1483,453.9364" style="stroke: #008000; stroke-width: 1.0;"/><text fill="#000000" font-family="sans-serif" font-size="13" lengthAdjust="spacingAndGlyphs" textLength="70" x="1515.5" y="363.9888">GUI events</text><!--MD5=[7a25e1c0cf9f57ccf31195bd84e79339]
link Controller to Model--><path d="M1873.2878,537.4693 C1886.1007,547.029 1898.9065,557.1892 1910.5,567.4219 C1935.6461,589.6165 1961.0825,616.2814 1982.5826,640.3267 " fill="none" id="Controller-&gt;Model" style="stroke: #A80036; stroke-width: 1.0;"/><polygon fill="#A80036" points="1985.9988,644.1622,1982.9997,634.781,1982.6732,640.4285,1977.0258,640.102,1985.9988,644.1622" style="stroke: #A80036; stroke-width: 1.0;"/><text fill="#000000" font-family="sans-serif" font-size="13" lengthAdjust="spacingAndGlyphs" textLength="54" x="1955.5" y="580.4888">modifies</text><text fill="#000000" font-family="sans-serif" font-size="13" lengthAdjust="spacingAndGlyphs" textLength="40" x="1966.5" y="595.6216">model</text><text fill="#000000" font-family="sans-serif" font-size="13" lengthAdjust="spacingAndGlyphs" textLength="0" x="1986.5" y="610.7544"/><!--MD5=[07aa7578b3f68a176666f6b88d04ae14]
link Model to Controller--><path d="M1936.9941,686.1856 C1894.6048,672.5624 1848.3707,650.3401 1818.5,614.4219 C1801.9941,594.5743 1794.294,567.4503 1790.8903,542.8727 " fill="none" id="Model-&gt;Controller" style="stroke: #00BFFF; stroke-width: 1.0; stroke-dasharray: 7.0,7.0;"/><polygon fill="#00BFFF" points="1790.2276,537.6703,1787.3973,547.1037,1790.8596,542.6302,1795.3331,546.0925,1790.2276,537.6703" style="stroke: #00BFFF; stroke-width: 1.0;"/><text fill="#00BFFF" font-family="sans-serif" font-size="13" lengthAdjust="spacingAndGlyphs" textLength="43" x="1837" y="580.4888">events</text><text fill="#000000" font-family="sans-serif" font-size="13" lengthAdjust="spacingAndGlyphs" textLength="74" x="1823.5" y="595.6216">from model</text><text fill="#000000" font-family="sans-serif" font-size="13" lengthAdjust="spacingAndGlyphs" textLength="48" x="1838.5" y="610.7544">(setter)</text><!--MD5=[9ce941d87ce4e48fd4249d6b680b4ca7]
link Controller to App--><path d="M1854.039,425.2511 C1866.1262,414.022 1878.4313,402.085 1889.5,390.4219 C1926.1018,351.8546 1964.0163,305.437 1992.4395,269.132 " fill="none" id="Controller-&gt;App" style="stroke: #A80036; stroke-width: 1.0;"/><polygon fill="#A80036" points="1995.858,264.7559,1987.1653,269.3858,1992.7799,268.6961,1993.4696,274.3107,1995.858,264.7559" style="stroke: #A80036; stroke-width: 1.0;"/><text fill="#000000" font-family="sans-serif" font-size="13" lengthAdjust="spacingAndGlyphs" textLength="54" x="1946.5" y="341.4888">modifies</text><text fill="#000000" font-family="sans-serif" font-size="13" lengthAdjust="spacingAndGlyphs" textLength="28" x="1961.5" y="356.6216">app,</text><text fill="#000000" font-family="sans-serif" font-size="13" lengthAdjust="spacingAndGlyphs" textLength="44" x="1953.5" y="371.7544">access</text><text fill="#000000" font-family="sans-serif" font-size="13" lengthAdjust="spacingAndGlyphs" textLength="64" x="1945.5" y="386.8872">view state</text><!--MD5=[c1f66048c356f227fac1d34d1d334670]
link App to Controller--><path d="M1975.1958,264.4767 C1958.8381,276.9578 1940.6891,289.2037 1922.5,298.4219 C1879.2082,320.3622 1850.1093,292.4749 1817.5,328.4219 C1795.2893,352.906 1787.9179,388.9603 1786.2726,419.9205 " fill="none" id="App-&gt;Controller" style="stroke: #00BFFF; stroke-width: 1.0; stroke-dasharray: 7.0,7.0;"/><polygon fill="#00BFFF" points="1786.0428,425.2393,1790.4279,416.4205,1786.2588,420.2439,1782.4353,416.0749,1786.0428,425.2393" style="stroke: #00BFFF; stroke-width: 1.0;"/><text fill="#00BFFF" font-family="sans-serif" font-size="13" lengthAdjust="spacingAndGlyphs" textLength="43" x="1826" y="356.4888">events</text><text fill="#000000" font-family="sans-serif" font-size="13" lengthAdjust="spacingAndGlyphs" textLength="58" x="1822.5" y="371.6216">from app</text><!--MD5=[7d44fd0a3837572a336f5d849720dbb4]
link App to Model--><path d="M2038.5,264.6372 C2038.5,356.8189 2038.5,539.7644 2038.5,639.0333 " fill="none" id="App-&gt;Model" style="stroke: #A80036; stroke-width: 1.0;"/><polygon fill="#A80036" points="2038.5,644.2805,2042.5,635.2805,2038.5,639.2805,2034.5,635.2805,2038.5,644.2805" style="stroke: #A80036; stroke-width: 1.0;"/><text fill="#000000" font-family="sans-serif" font-size="13" lengthAdjust="spacingAndGlyphs" textLength="54" x="2039.5" y="478.4888">modifies</text><text fill="#000000" font-family="sans-serif" font-size="13" lengthAdjust="spacingAndGlyphs" textLength="40" x="2050.5" y="493.6216">model</text><!--MD5=[a24788bde86d7faf0dfd8b64efe48890]
link User to View--><path d="M955.1866,208.4219 C995.6415,208.4219 1036.3568,208.4219 1076.289,208.4219 " fill="none" id="User-View" style="stroke: #A80036; stroke-width: 1.0; stroke-dasharray: 7.0,7.0;"/><text fill="#000000" font-family="sans-serif" font-size="13" lengthAdjust="spacingAndGlyphs" textLength="85" x="973.25" y="201.4888">interacts with</text><!--MD5=[a24788bde86d7faf0dfd8b64efe48890]
link User to View--><!--MD5=[fed9a33ad82bb0031d94013f1e284e49]
@startuml
title Controller "mediates" between GUI \n and everything else \n

header
<font color=PaleVioletRed size=20>MVCA Architecture</font>
by Andy Bulka 2020
V2.3
endheader

package "App and Model" {
    class Model
    class App
}


Package Controller #PaleVioletRed {
    class "Controller"
}

class "Model"  << (M,#FF7700) >> {
    attr1
    attr2
    attr3
    set_attr1(val)
    set_attr2(val)   <color:DeepSkyBlue><i>// broadcast event
    notify_all()     <color:DeepSkyBlue><i>// broadcast event
}

class "Controller" << (C,#FF7700)>> {
    view
	app
    model
	on_gui_event()
    on_notify()    <color:DeepSkyBlue><i>// listen to broadcast events
}

class "View" << (V,#FF7700) >> {
    buttons
    text inputs
    checkbox inputs
    <i>etc.
    - - -
    <img:https://github.com/abulka/todomvc-oo/raw/master/docs_other/images/mgm-pattern-gui.png>

    View is the GUI

    e.g. DOM elements
    e.g. GUI user controls
}

class App  << (A,#FF7700) >> {
    model
    view-state
    business_logic1()
    business_logic2()
	notify_all()      <color:DeepSkyBlue><i>// broadcast event
}

note as User #white
    User
    <img:https://github.com/abulka/todomvc-oo/raw/master/docs_other/images/mgm-pattern-user-facing-right.png>
end note


"Controller" - -> "View" : update View \n <i>e.g. set DOM attrs
"Controller" - - - - -> "Model" : modifies \n model\n
"Controller" - -> "App" : modifies \n app, \n access \n view state
"View" ..> "Controller" #Green : GUI events

Model ..> "Controller"  #DeepSkyBlue : <color:DeepSkyBlue>events \n from model \n (setter)
App ..> "Controller"  #DeepSkyBlue : <color:DeepSkyBlue>events \n from app

App - -> Model : modifies \n model
User . View : interacts with
User .[hidden] View


@enduml

PlantUML version 1.2020.08(Sun Apr 26 14:08:22 UTC 2020)
(GPL source distribution)
Java Runtime: OpenJDK Runtime Environment
JVM: OpenJDK 64-Bit Server VM
Java Version: 1.8.0_252-heroku-b09
Operating System: Linux
Default Encoding: UTF-8
Language: en
Country: US
--></g></svg>