<?xml version="1.0" encoding="UTF-8" standalone="no"?><svg xmlns="http://www.w3.org/2000/svg" xmlns:xlink="http://www.w3.org/1999/xlink" contentScriptType="application/ecmascript" contentStyleType="text/css" height="705px" preserveAspectRatio="none" style="width:1789px;height:705px;" version="1.1" viewBox="0 0 1789 705" width="1789px" zoomAndPan="magnify"><defs><filter height="300%" id="fohg9qo93kols" width="300%" x="-1" y="-1"><feGaussianBlur result="blurOut" stdDeviation="2.0"/><feColorMatrix in="blurOut" result="blurOut2" type="matrix" values="0 0 0 0 0 0 0 0 0 0 0 0 0 0 0 0 0 0 .4 0"/><feOffset dx="4.0" dy="4.0" in="blurOut2" result="blurOut3"/><feBlend in="SourceGraphic" in2="blurOut3" mode="normal"/></filter></defs><g><text fill="#888888" font-family="sans-serif" font-size="10" lengthAdjust="spacingAndGlyphs" textLength="240" x="1537" y="9.2822">MVC-A Architecture - MVC plus App Architecture,</text><text fill="#888888" font-family="sans-serif" font-size="10" lengthAdjust="spacingAndGlyphs" textLength="145" x="1632" y="20.9229">emphasizing Controllers Roles</text><text fill="#888888" font-family="sans-serif" font-size="10" lengthAdjust="spacingAndGlyphs" textLength="96" x="1681" y="32.5635">by Andy Bulka 2020</text><!--MD5=[7e20e022571e30ec1001cf6eabd7f3e2]
class Model--><rect fill="#FEFECE" filter="url(#fohg9qo93kols)" height="73.6094" id="Model" style="stroke: #A80036; stroke-width: 1.5;" width="69" x="790.5" y="124.4219"/><ellipse cx="805.5" cy="140.4219" fill="#ADD1B2" rx="11" ry="11" style="stroke: #A80036; stroke-width: 1.0;"/><path d="M807.8438,136.0938 L808.0156,136.1719 C808.2344,135.8594 808.4375,135.7656 808.7344,135.7656 C809.0313,135.7656 809.3125,135.9063 809.4688,136.1719 C809.5625,136.3281 809.5781,136.4531 809.5781,136.8906 L809.5781,138.3125 C809.5781,138.7344 809.5469,138.9219 809.4375,139.0781 C809.2656,139.2969 809,139.4375 808.7344,139.4375 C808.5156,139.4375 808.2813,139.3281 808.1406,139.1875 C808,139.0625 807.9688,138.9375 807.9063,138.5313 C807.8125,138.125 807.6406,137.9063 807.1563,137.625 C806.6875,137.375 806.0781,137.2188 805.5,137.2188 C803.7656,137.2188 802.5156,138.5313 802.5156,140.3125 L802.5156,141.4063 C802.5156,143.1094 803.8125,144.2031 805.8594,144.2031 C806.625,144.2031 807.3125,144.0781 807.7344,143.8125 C807.9219,143.7188 807.9219,143.7188 808.375,143.2344 C808.5625,143.0469 808.7656,142.9688 808.9844,142.9688 C809.4531,142.9688 809.8438,143.3594 809.8438,143.8125 C809.8438,144.2031 809.5156,144.6563 808.9375,145.0625 C808.1875,145.6094 807.0313,145.9063 805.8125,145.9063 C802.9219,145.9063 800.8125,144.0156 800.8125,141.4375 L800.8125,140.3125 C800.8125,137.5938 802.8125,135.5156 805.4375,135.5156 C806.3125,135.5156 806.9063,135.6563 807.8438,136.0938 Z "/><text fill="#000000" font-family="sans-serif" font-size="12" lengthAdjust="spacingAndGlyphs" textLength="37" x="819.5" y="144.5762">Model HI</text><line style="stroke: #A80036; stroke-width: 1.5;" x1="791.5" x2="858.5" y1="156.4219" y2="156.4219"/><text fill="#000000" font-family="sans-serif" font-size="11" lengthAdjust="spacingAndGlyphs" textLength="25" x="796.5" y="170.6323">data</text><text fill="#000000" font-family="sans-serif" font-size="11" lengthAdjust="spacingAndGlyphs" textLength="41" x="796.5" y="183.437">setters</text><line style="stroke: #A80036; stroke-width: 1.5;" x1="791.5" x2="858.5" y1="190.0313" y2="190.0313"/><!--MD5=[67e2b170ac83d81bde48727aa8d1114e]
class Controllers--><rect fill="#FEFECE" filter="url(#fohg9qo93kols)" height="112.0234" id="Controllers" style="stroke: #A80036; stroke-width: 1.5;" width="131" x="506.5" y="356.9219"/><ellipse cx="535.45" cy="372.9219" fill="#ADD1B2" rx="11" ry="11" style="stroke: #A80036; stroke-width: 1.0;"/><path d="M537.7938,368.5938 L537.9656,368.6719 C538.1844,368.3594 538.3875,368.2656 538.6844,368.2656 C538.9813,368.2656 539.2625,368.4063 539.4188,368.6719 C539.5125,368.8281 539.5281,368.9531 539.5281,369.3906 L539.5281,370.8125 C539.5281,371.2344 539.4969,371.4219 539.3875,371.5781 C539.2156,371.7969 538.95,371.9375 538.6844,371.9375 C538.4656,371.9375 538.2313,371.8281 538.0906,371.6875 C537.95,371.5625 537.9188,371.4375 537.8563,371.0313 C537.7625,370.625 537.5906,370.4063 537.1063,370.125 C536.6375,369.875 536.0281,369.7188 535.45,369.7188 C533.7156,369.7188 532.4656,371.0313 532.4656,372.8125 L532.4656,373.9063 C532.4656,375.6094 533.7625,376.7031 535.8094,376.7031 C536.575,376.7031 537.2625,376.5781 537.6844,376.3125 C537.8719,376.2188 537.8719,376.2188 538.325,375.7344 C538.5125,375.5469 538.7156,375.4688 538.9344,375.4688 C539.4031,375.4688 539.7938,375.8594 539.7938,376.3125 C539.7938,376.7031 539.4656,377.1563 538.8875,377.5625 C538.1375,378.1094 536.9813,378.4063 535.7625,378.4063 C532.8719,378.4063 530.7625,376.5156 530.7625,373.9375 L530.7625,372.8125 C530.7625,370.0938 532.7625,368.0156 535.3875,368.0156 C536.2625,368.0156 536.8563,368.1563 537.7938,368.5938 Z "/><text fill="#000000" font-family="sans-serif" font-size="12" lengthAdjust="spacingAndGlyphs" textLength="68" x="552.55" y="377.0762">Controllers</text><line style="stroke: #A80036; stroke-width: 1.5;" x1="507.5" x2="636.5" y1="388.9219" y2="388.9219"/><text fill="#000000" font-family="sans-serif" font-size="11" lengthAdjust="spacingAndGlyphs" textLength="21" x="512.5" y="403.1323">app</text><text fill="#000000" font-family="sans-serif" font-size="11" lengthAdjust="spacingAndGlyphs" textLength="35" x="512.5" y="415.937">model</text><text fill="#000000" font-family="sans-serif" font-size="11" lengthAdjust="spacingAndGlyphs" textLength="17" x="512.5" y="428.7417">gui</text><line style="stroke: #A80036; stroke-width: 1.5;" x1="507.5" x2="636.5" y1="435.3359" y2="435.3359"/><text fill="#000000" font-family="sans-serif" font-size="11" lengthAdjust="spacingAndGlyphs" textLength="88" x="512.5" y="449.5464">event_handler()</text><text fill="#000000" font-family="sans-serif" font-size="11" lengthAdjust="spacingAndGlyphs" textLength="119" x="512.5" y="462.3511">dom_event_handler()</text><!--MD5=[335f4d9be48430461c68bf6d6fdba145]
class App--><rect fill="#FEFECE" filter="url(#fohg9qo93kols)" height="112.0234" id="App" style="stroke: #A80036; stroke-width: 1.5;" width="111" x="852.5" y="560.9219"/><ellipse cx="892.25" cy="576.9219" fill="#ADD1B2" rx="11" ry="11" style="stroke: #A80036; stroke-width: 1.0;"/><path d="M894.5938,572.5938 L894.7656,572.6719 C894.9844,572.3594 895.1875,572.2656 895.4844,572.2656 C895.7813,572.2656 896.0625,572.4063 896.2188,572.6719 C896.3125,572.8281 896.3281,572.9531 896.3281,573.3906 L896.3281,574.8125 C896.3281,575.2344 896.2969,575.4219 896.1875,575.5781 C896.0156,575.7969 895.75,575.9375 895.4844,575.9375 C895.2656,575.9375 895.0313,575.8281 894.8906,575.6875 C894.75,575.5625 894.7188,575.4375 894.6563,575.0313 C894.5625,574.625 894.3906,574.4063 893.9063,574.125 C893.4375,573.875 892.8281,573.7188 892.25,573.7188 C890.5156,573.7188 889.2656,575.0313 889.2656,576.8125 L889.2656,577.9063 C889.2656,579.6094 890.5625,580.7031 892.6094,580.7031 C893.375,580.7031 894.0625,580.5781 894.4844,580.3125 C894.6719,580.2188 894.6719,580.2188 895.125,579.7344 C895.3125,579.5469 895.5156,579.4688 895.7344,579.4688 C896.2031,579.4688 896.5938,579.8594 896.5938,580.3125 C896.5938,580.7031 896.2656,581.1563 895.6875,581.5625 C894.9375,582.1094 893.7813,582.4063 892.5625,582.4063 C889.6719,582.4063 887.5625,580.5156 887.5625,577.9375 L887.5625,576.8125 C887.5625,574.0938 889.5625,572.0156 892.1875,572.0156 C893.0625,572.0156 893.6563,572.1563 894.5938,572.5938 Z "/><text fill="#000000" font-family="sans-serif" font-size="12" lengthAdjust="spacingAndGlyphs" textLength="24" x="911.75" y="581.0762">App</text><line style="stroke: #A80036; stroke-width: 1.5;" x1="853.5" x2="962.5" y1="592.9219" y2="592.9219"/><text fill="#000000" font-family="sans-serif" font-size="11" lengthAdjust="spacingAndGlyphs" textLength="35" x="858.5" y="607.1323">model</text><text fill="#000000" font-family="sans-serif" font-size="11" lengthAdjust="spacingAndGlyphs" textLength="58" x="858.5" y="619.937">view state</text><line style="stroke: #A80036; stroke-width: 1.5;" x1="853.5" x2="962.5" y1="626.5313" y2="626.5313"/><text fill="#000000" font-family="sans-serif" font-size="11" lengthAdjust="spacingAndGlyphs" textLength="33" x="858.5" y="640.7417">boot()</text><text fill="#000000" font-family="sans-serif" font-size="11" lengthAdjust="spacingAndGlyphs" textLength="99" x="858.5" y="653.5464">business_logic1()</text><text fill="#000000" font-family="sans-serif" font-size="11" lengthAdjust="spacingAndGlyphs" textLength="99" x="858.5" y="666.3511">business_logic2()</text><!--MD5=[c045e12321b83266d36d22b9096c24ea]
class View--><rect fill="#FEFECE" filter="url(#fohg9qo93kols)" height="53.9375" id="View" style="stroke: #A80036; stroke-width: 1.5;" width="103" x="234.5" y="589.9219"/><ellipse cx="249.5" cy="608.8906" fill="#ADD1B2" rx="11" ry="11" style="stroke: #A80036; stroke-width: 1.0;"/><path d="M251.8438,604.5625 L252.0156,604.6406 C252.2344,604.3281 252.4375,604.2344 252.7344,604.2344 C253.0313,604.2344 253.3125,604.375 253.4688,604.6406 C253.5625,604.7969 253.5781,604.9219 253.5781,605.3594 L253.5781,606.7813 C253.5781,607.2031 253.5469,607.3906 253.4375,607.5469 C253.2656,607.7656 253,607.9063 252.7344,607.9063 C252.5156,607.9063 252.2813,607.7969 252.1406,607.6563 C252,607.5313 251.9688,607.4063 251.9063,607 C251.8125,606.5938 251.6406,606.375 251.1563,606.0938 C250.6875,605.8438 250.0781,605.6875 249.5,605.6875 C247.7656,605.6875 246.5156,607 246.5156,608.7813 L246.5156,609.875 C246.5156,611.5781 247.8125,612.6719 249.8594,612.6719 C250.625,612.6719 251.3125,612.5469 251.7344,612.2813 C251.9219,612.1875 251.9219,612.1875 252.375,611.7031 C252.5625,611.5156 252.7656,611.4375 252.9844,611.4375 C253.4531,611.4375 253.8438,611.8281 253.8438,612.2813 C253.8438,612.6719 253.5156,613.125 252.9375,613.5313 C252.1875,614.0781 251.0313,614.375 249.8125,614.375 C246.9219,614.375 244.8125,612.4844 244.8125,609.9063 L244.8125,608.7813 C244.8125,606.0625 246.8125,603.9844 249.4375,603.9844 C250.3125,603.9844 250.9063,604.125 251.8438,604.5625 Z "/><text fill="#000000" font-family="sans-serif" font-size="12" font-style="italic" lengthAdjust="spacingAndGlyphs" textLength="75" x="261.5" y="606.0605">«GUI / DOM»</text><text fill="#000000" font-family="sans-serif" font-size="12" lengthAdjust="spacingAndGlyphs" textLength="28" x="285" y="620.0293">View</text><line style="stroke: #A80036; stroke-width: 1.5;" x1="235.5" x2="336.5" y1="627.8594" y2="627.8594"/><line style="stroke: #A80036; stroke-width: 1.5;" x1="235.5" x2="336.5" y1="635.8594" y2="635.8594"/><!--MD5=[527fedc8d6bd96cda1a741238be27956]
class Scenario1--><rect fill="#FEFECE" filter="url(#fohg9qo93kols)" height="53.9375" id="Scenario1" style="stroke: #A80036; stroke-width: 1.5;" width="277" x="1072.5" y="134.4219"/><ellipse cx="1087.5" cy="153.3906" fill="#FF7700" rx="11" ry="11" style="stroke: #A80036; stroke-width: 1.0;"/><path d="M1091.7813,149.3594 L1091.7813,150.8594 C1091.7813,151.3281 1091.75,151.4688 1091.6406,151.6406 C1091.4688,151.8594 1091.2188,152 1090.9531,152 C1090.7188,152 1090.4844,151.8906 1090.3438,151.7656 C1090.2188,151.625 1090.2188,151.625 1090.1094,151.0781 C1089.9531,150.4063 1089.1406,149.9375 1088.0781,149.9375 C1087.0156,149.9375 1086.1563,150.5 1086.1563,151.2344 C1086.1563,151.5938 1086.4219,151.9844 1086.7969,152.1719 C1087.125,152.3438 1087.2188,152.375 1088.4844,152.6094 C1089.9688,152.875 1090.6094,153.125 1091.1406,153.5469 C1091.8281,154.0938 1092.1406,154.7813 1092.1406,155.6719 C1092.1406,157.4375 1090.5781,158.625 1088.25,158.625 C1087.3281,158.625 1086.4375,158.4063 1085.5938,157.9688 C1085.3125,158.3125 1085.1875,158.375 1084.9219,158.375 C1084.3281,158.375 1084.0469,158.0156 1084.0469,157.25 L1084.0469,156.125 C1084.0469,155.7031 1084.0938,155.5156 1084.2031,155.3438 C1084.375,155.125 1084.625,155 1084.9063,155 C1085.1406,155 1085.3594,155.0938 1085.5156,155.25 C1085.6406,155.3594 1085.6406,155.3594 1085.7656,155.8281 C1085.9375,156.4375 1087.0156,156.9219 1088.1406,156.9219 C1089.3906,156.9219 1090.375,156.375 1090.375,155.6406 C1090.375,155.2813 1090.1406,154.9375 1089.7656,154.7344 C1089.4063,154.5469 1089.1406,154.4844 1087.9844,154.2813 C1086.875,154.0938 1086.3281,153.9219 1085.7813,153.6094 C1084.9219,153.125 1084.3906,152.2188 1084.3906,151.25 C1084.3906,149.5313 1085.9688,148.2344 1088.0781,148.2344 C1088.9531,148.2344 1089.7031,148.4219 1090.2969,148.7969 C1090.4688,148.375 1090.6094,148.2344 1090.9531,148.2344 C1091.25,148.2344 1091.5313,148.3906 1091.6719,148.625 C1091.7656,148.7813 1091.7813,148.9219 1091.7813,149.3594 Z "/><text fill="#000000" font-family="sans-serif" font-size="12" font-style="italic" lengthAdjust="spacingAndGlyphs" textLength="76" x="1099.5" y="150.5605">«start here»</text><text fill="#000000" font-family="sans-serif" font-size="12" lengthAdjust="spacingAndGlyphs" textLength="63" x="1106" y="164.5293">Scenario1</text><rect fill="#FFFFFF" height="15.9688" style="stroke: #000000; stroke-width: 1.0; stroke-dasharray: 2.0,2.0;" width="171" x="1181.5" y="131.4219"/><text fill="#000000" font-family="sans-serif" font-size="12" font-style="italic" lengthAdjust="spacingAndGlyphs" textLength="161" x="1186.5" y="143.5605">Instance of App() created</text><line style="stroke: #A80036; stroke-width: 1.5;" x1="1073.5" x2="1348.5" y1="172.3594" y2="172.3594"/><line style="stroke: #A80036; stroke-width: 1.5;" x1="1073.5" x2="1348.5" y1="180.3594" y2="180.3594"/><!--MD5=[3ddfedd257689796a17452cc1b536714]
class Scenario2--><rect fill="#FEFECE" filter="url(#fohg9qo93kols)" height="53.9375" id="Scenario2" style="stroke: #A80036; stroke-width: 1.5;" width="338" x="6" y="134.4219"/><ellipse cx="21" cy="153.3906" fill="#FF7700" rx="11" ry="11" style="stroke: #A80036; stroke-width: 1.0;"/><path d="M25.2813,149.3594 L25.2813,150.8594 C25.2813,151.3281 25.25,151.4688 25.1406,151.6406 C24.9688,151.8594 24.7188,152 24.4531,152 C24.2188,152 23.9844,151.8906 23.8438,151.7656 C23.7188,151.625 23.7188,151.625 23.6094,151.0781 C23.4531,150.4063 22.6406,149.9375 21.5781,149.9375 C20.5156,149.9375 19.6563,150.5 19.6563,151.2344 C19.6563,151.5938 19.9219,151.9844 20.2969,152.1719 C20.625,152.3438 20.7188,152.375 21.9844,152.6094 C23.4688,152.875 24.1094,153.125 24.6406,153.5469 C25.3281,154.0938 25.6406,154.7813 25.6406,155.6719 C25.6406,157.4375 24.0781,158.625 21.75,158.625 C20.8281,158.625 19.9375,158.4063 19.0938,157.9688 C18.8125,158.3125 18.6875,158.375 18.4219,158.375 C17.8281,158.375 17.5469,158.0156 17.5469,157.25 L17.5469,156.125 C17.5469,155.7031 17.5938,155.5156 17.7031,155.3438 C17.875,155.125 18.125,155 18.4063,155 C18.6406,155 18.8594,155.0938 19.0156,155.25 C19.1406,155.3594 19.1406,155.3594 19.2656,155.8281 C19.4375,156.4375 20.5156,156.9219 21.6406,156.9219 C22.8906,156.9219 23.875,156.375 23.875,155.6406 C23.875,155.2813 23.6406,154.9375 23.2656,154.7344 C22.9063,154.5469 22.6406,154.4844 21.4844,154.2813 C20.375,154.0938 19.8281,153.9219 19.2813,153.6094 C18.4219,153.125 17.8906,152.2188 17.8906,151.25 C17.8906,149.5313 19.4688,148.2344 21.5781,148.2344 C22.4531,148.2344 23.2031,148.4219 23.7969,148.7969 C23.9688,148.375 24.1094,148.2344 24.4531,148.2344 C24.75,148.2344 25.0313,148.3906 25.1719,148.625 C25.2656,148.7813 25.2813,148.9219 25.2813,149.3594 Z "/><text fill="#000000" font-family="sans-serif" font-size="12" font-style="italic" lengthAdjust="spacingAndGlyphs" textLength="76" x="33" y="150.5605">«start here»</text><text fill="#000000" font-family="sans-serif" font-size="12" lengthAdjust="spacingAndGlyphs" textLength="63" x="39.5" y="164.5293">Scenario2</text><rect fill="#FFFFFF" height="15.9688" style="stroke: #000000; stroke-width: 1.0; stroke-dasharray: 2.0,2.0;" width="232" x="115" y="131.4219"/><text fill="#000000" font-family="sans-serif" font-size="12" font-style="italic" lengthAdjust="spacingAndGlyphs" textLength="222" x="120" y="143.5605">User interacts with DOM GUI control</text><line style="stroke: #A80036; stroke-width: 1.5;" x1="7" x2="343" y1="172.3594" y2="172.3594"/><line style="stroke: #A80036; stroke-width: 1.5;" x1="7" x2="343" y1="180.3594" y2="180.3594"/><path d="M1385,42.9219 L1385,279.9141 L1759,279.9141 L1759,52.9219 L1749,42.9219 L1385,42.9219 " fill="#FBFB77" filter="url(#fohg9qo93kols)" style="stroke: #A80036; stroke-width: 1.0;"/><path d="M1749,42.9219 L1749,52.9219 L1759,52.9219 L1749,42.9219 " fill="#FBFB77" style="stroke: #A80036; stroke-width: 1.0;"/><text fill="#000000" font-family="sans-serif" font-size="13" lengthAdjust="spacingAndGlyphs" textLength="349" x="1391" y="59.9888">This "literate code map" shows the MVC-A Architecture</text><text fill="#000000" font-family="sans-serif" font-size="13" lengthAdjust="spacingAndGlyphs" textLength="261" x="1391" y="75.1216">which means MVC plus App Architecture.</text><text fill="#000000" font-family="sans-serif" font-size="13" lengthAdjust="spacingAndGlyphs" textLength="0" x="1395" y="90.2544"/><text fill="#000000" font-family="sans-serif" font-size="13" lengthAdjust="spacingAndGlyphs" textLength="305" x="1391" y="105.3872">This architectural design pattern clearly defines:</text><text fill="#000000" font-family="sans-serif" font-size="13" lengthAdjust="spacingAndGlyphs" textLength="0" x="1395" y="120.52"/><ellipse cx="1396.5" cy="131.2188" fill="#000000" rx="2.5" ry="2.5" style="stroke: #000000; stroke-width: 0.0;"/><text fill="#000000" font-family="sans-serif" font-size="13" lengthAdjust="spacingAndGlyphs" textLength="220" x="1402" y="135.6528">the role mediating Controllers play</text><ellipse cx="1396.5" cy="146.3516" fill="#000000" rx="2.5" ry="2.5" style="stroke: #000000; stroke-width: 0.0;"/><text fill="#000000" font-family="sans-serif" font-size="13" lengthAdjust="spacingAndGlyphs" textLength="170" x="1402" y="150.7856">the need for an App object</text><ellipse cx="1396.5" cy="161.4844" fill="#000000" rx="2.5" ry="2.5" style="stroke: #000000; stroke-width: 0.0;"/><text fill="#000000" font-family="sans-serif" font-size="13" lengthAdjust="spacingAndGlyphs" textLength="199" x="1402" y="165.9185">the direction and flow of events</text><text fill="#000000" font-family="sans-serif" font-size="13" lengthAdjust="spacingAndGlyphs" textLength="0" x="1395" y="181.0513"/><text fill="#000000" font-family="sans-serif" font-size="13" lengthAdjust="spacingAndGlyphs" textLength="286" x="1391" y="196.1841">The App object is central to this architecture:</text><text fill="#000000" font-family="sans-serif" font-size="13" lengthAdjust="spacingAndGlyphs" textLength="0" x="1395" y="211.3169"/><ellipse cx="1396.5" cy="222.0156" fill="#000000" rx="2.5" ry="2.5" style="stroke: #000000; stroke-width: 0.0;"/><text fill="#000000" font-family="sans-serif" font-size="13" lengthAdjust="spacingAndGlyphs" textLength="130" x="1402" y="226.4497">holds refs to models</text><ellipse cx="1396.5" cy="237.1484" fill="#000000" rx="2.5" ry="2.5" style="stroke: #000000; stroke-width: 0.0;"/><text fill="#000000" font-family="sans-serif" font-size="13" lengthAdjust="spacingAndGlyphs" textLength="119" x="1402" y="241.5825">creates controllers</text><ellipse cx="1396.5" cy="252.2813" fill="#000000" rx="2.5" ry="2.5" style="stroke: #000000; stroke-width: 0.0;"/><text fill="#000000" font-family="sans-serif" font-size="13" lengthAdjust="spacingAndGlyphs" textLength="102" x="1402" y="256.7153">holds view state</text><ellipse cx="1396.5" cy="267.4141" fill="#000000" rx="2.5" ry="2.5" style="stroke: #000000; stroke-width: 0.0;"/><text fill="#000000" font-family="sans-serif" font-size="13" lengthAdjust="spacingAndGlyphs" textLength="248" x="1402" y="271.8481">contains some business logic methods V7</text><!--MD5=[7d44fd0a3837572a336f5d849720dbb4]
link App to Model--><path d="M923.819,560.6529 C927.578,541.1729 929.788,519.1029 927,498.9219 C911.815,389.0079 866.772,265.5369 841.926,203.1719 " fill="none" id="App-&gt;Model" style="stroke: #A80036; stroke-width: 1.0;"/><polygon fill="#A80036" points="840.026,198.4229,839.6557,208.2648,841.8834,203.0651,847.0832,205.2929,840.026,198.4229" style="stroke: #A80036; stroke-width: 1.0;"/><text fill="#000000" font-family="sans-serif" font-size="13" lengthAdjust="spacingAndGlyphs" textLength="48" x="923" y="417.4888">2. owns</text><text fill="#000000" font-family="sans-serif" font-size="13" lengthAdjust="spacingAndGlyphs" textLength="7" x="835.007" y="218.1834">*</text><!--MD5=[7d44fd0a3837572a336f5d849720dbb4]
link App to Model--><path d="M942.827,560.7099 C971.628,507.8299 1004.189,426.0869 980,356.9219 C957.033,291.2499 901.573,231.1939 863.621,195.7019 " fill="none" id="App-&gt;Model-1" style="stroke: #A80036; stroke-width: 1.0;"/><polygon fill="#A80036" points="859.545,191.9209,863.4235,200.9739,863.2109,195.321,868.8638,195.1085,859.545,191.9209" style="stroke: #A80036; stroke-width: 1.0;"/><text fill="#000000" font-family="sans-serif" font-size="13" lengthAdjust="spacingAndGlyphs" textLength="70" x="990" y="417.4888">8. modifies</text><!--MD5=[fa5cbba07ca2a45807c1da0063261dac]
link Model to App--><path d="M815.484,198.5919 C801.68,259.3079 782.952,383.4579 834,468.9219 C847.682,491.8279 870.569,477.1549 886,498.9219 C897.582,515.2589 903.548,535.9889 906.49,555.4469 " fill="none" id="Model-&gt;App" style="stroke: #00BFFF; stroke-width: 1.0; stroke-dasharray: 7.0,7.0;"/><polygon fill="#00BFFF" points="907.242,560.8969,909.9753,551.4349,906.5591,555.9437,902.0503,552.5275,907.242,560.8969" style="stroke: #00BFFF; stroke-width: 1.0;"/><text fill="#00BFFF" font-family="sans-serif" font-size="13" lengthAdjust="spacingAndGlyphs" textLength="52" x="835" y="417.4888">9. event</text><!--MD5=[29e5572c3d09c6b445394b9c6bb55e57]
link Controllers to Model--><path d="M593.623,356.8349 C601.453,340.7309 611.304,323.7559 623,309.9219 C669.892,254.4599 741.736,208.5079 785.912,183.3139 " fill="none" id="Controllers-&gt;Model" style="stroke: #A80036; stroke-width: 1.0;"/><polygon fill="#A80036" points="790.363,180.7919,780.5606,181.7477,786.0126,183.2564,784.5039,188.7083,790.363,180.7919" style="stroke: #A80036; stroke-width: 1.0;"/><text fill="#000000" font-family="sans-serif" font-size="13" lengthAdjust="spacingAndGlyphs" textLength="59" x="624" y="322.9888">7. modify</text><!--MD5=[3b10ef7f195f99fed435b58684ccff70]
link Model to Controllers--><path d="M798.954,198.6059 C772.948,233.4709 730.792,286.7069 688,326.9219 C673.948,340.1279 657.815,353.1029 642.137,364.7839 " fill="none" id="Model-&gt;Controllers" style="stroke: #00BFFF; stroke-width: 1.0; stroke-dasharray: 7.0,7.0;"/><polygon fill="#00BFFF" points="637.73,368.0429,647.345,365.9093,641.7506,365.0706,642.5893,359.4763,637.73,368.0429" style="stroke: #00BFFF; stroke-width: 1.0;"/><text fill="#00BFFF" font-family="sans-serif" font-size="13" lengthAdjust="spacingAndGlyphs" textLength="52" x="706" y="322.9888">9. event</text><!--MD5=[8732cf4d0d97d18d856e057722ac372c]
link App to Controllers--><path d="M852.37,592.601 C818.139,577.1768 774.068,555.3409 738,530.9219 C720.273,518.9199 719.005,511.9259 702,498.9219 C683.181,484.5309 661.968,470.0059 642.221,457.1349 " fill="none" id="App-&gt;Controllers" style="stroke: #A80036; stroke-width: 1.0;"/><polygon fill="#A80036" points="637.767,454.2439,643.1378,462.4995,641.9608,456.9664,647.4938,455.7894,637.767,454.2439" style="stroke: #A80036; stroke-width: 1.0;"/><text fill="#000000" font-family="sans-serif" font-size="13" lengthAdjust="spacingAndGlyphs" textLength="64" x="739" y="519.4888">3. creates</text><!--MD5=[8732cf4d0d97d18d856e057722ac372c]
link App to Controllers--><path d="M865.254,560.6109 C844.559,534.9729 821.355,508.1499 808,498.9219 C757.861,464.2769 692.015,442.1089 642.618,429.1299 " fill="none" id="App-&gt;Controllers-1" style="stroke: #00BFFF; stroke-width: 1.0; stroke-dasharray: 7.0,7.0;"/><polygon fill="#00BFFF" points="637.588,427.8249,645.2968,433.9547,642.4281,429.0792,647.3037,426.2106,637.588,427.8249" style="stroke: #00BFFF; stroke-width: 1.0;"/><text fill="#00BFFF" font-family="sans-serif" font-size="13" lengthAdjust="spacingAndGlyphs" textLength="36" x="841" y="519.4888">event</text><!--MD5=[465b39aec0e40ffb0f6d1835ec62eb99]
link Controllers to App--><path d="M546.97,469.1389 C541.297,490.3799 540.386,513.6529 554,530.9219 C589.859,576.4102 755.829,600.3337 847.222,610.2543 " fill="none" id="Controllers-&gt;App" style="stroke: #A80036; stroke-width: 1.0;"/><polygon fill="#A80036" points="852.324,610.802,843.803,605.8632,847.3526,610.2677,842.9481,613.8174,852.324,610.802" style="stroke: #A80036; stroke-width: 1.0;"/><text fill="#000000" font-family="sans-serif" font-size="13" lengthAdjust="spacingAndGlyphs" textLength="134" x="555" y="511.9888">7. call business logic/</text><text fill="#000000" font-family="sans-serif" font-size="13" lengthAdjust="spacingAndGlyphs" textLength="112" x="570" y="527.1216">access view state</text><!--MD5=[a42d6c11755756d1d5174daff1d1872c]
link Controllers to View--><path d="M506.31,425.7719 C411.862,443.4669 247.1,477.0519 230,498.9219 C209.329,525.3599 231.702,560.6659 254.009,585.5563 " fill="none" id="Controllers-&gt;View" style="stroke: #A80036; stroke-width: 1.0;"/><polygon fill="#A80036" points="257.582,589.4586,254.4555,580.1192,254.2059,585.7705,248.5545,585.5209,257.582,589.4586" style="stroke: #A80036; stroke-width: 1.0;"/><text fill="#000000" font-family="sans-serif" font-size="13" lengthAdjust="spacingAndGlyphs" textLength="64" x="231" y="519.4888">4. creates</text><!--MD5=[a42d6c11755756d1d5174daff1d1872c]
link Controllers to View--><path d="M506.462,422.9259 C454.433,433.1929 382.88,454.6919 336,498.9219 C311.749,521.8029 298.713,558.3749 292.098,584.5395 " fill="none" id="Controllers-&gt;View-1" style="stroke: #A80036; stroke-width: 1.0;"/><polygon fill="#A80036" points="290.859,589.6266,296.8746,581.8284,292.0419,584.7685,289.1017,579.9358,290.859,589.6266" style="stroke: #A80036; stroke-width: 1.0;"/><text fill="#000000" font-family="sans-serif" font-size="13" lengthAdjust="spacingAndGlyphs" textLength="87" x="337" y="519.4888">10. maintains</text><!--MD5=[e6f99e04e133d6143603ac2a5666da84]
link View to Controllers--><path d="M335.121,589.7893 C363.411,573.9951 399.161,552.7449 429,530.9219 C446.279,518.2849 448.613,512.6959 465,498.9219 C476.911,488.9099 489.742,478.4489 502.24,468.4269 " fill="none" id="View-&gt;Controllers" style="stroke: #32CD32; stroke-width: 1.0; stroke-dasharray: 7.0,7.0;"/><polygon fill="#32CD32" points="506.464,465.0459,496.9382,467.5476,502.5606,468.1706,501.9377,473.793,506.464,465.0459" style="stroke: #32CD32; stroke-width: 1.0;"/><text fill="#32CD32" font-family="sans-serif" font-size="13" lengthAdjust="spacingAndGlyphs" textLength="47" x="466" y="511.9888">6. DOM</text><text fill="#000000" font-family="sans-serif" font-size="13" lengthAdjust="spacingAndGlyphs" textLength="0" x="517" y="511.9888"/><text fill="#000000" font-family="sans-serif" font-size="13" lengthAdjust="spacingAndGlyphs" textLength="0" x="475.5" y="527.1216"/><text fill="#32CD32" font-family="sans-serif" font-size="13" lengthAdjust="spacingAndGlyphs" textLength="36" x="475.5" y="527.1216">event</text><!--MD5=[c840fc8ec2f954a830edd539b9eb92ee]
link Scenario1 to App--><path d="M1202.87,188.4859 C1184.8,243.7969 1137.46,375.4929 1069,468.9219 C1040.52,507.7959 1000.541,544.3639 967.549,571.3039 " fill="none" id="Scenario1-&gt;App" style="stroke: #A80036; stroke-width: 1.0; stroke-dasharray: 7.0,7.0;"/><polygon fill="#A80036" points="963.562,574.5409,973.0703,571.9733,967.4437,571.3893,968.0277,565.7626,963.562,574.5409" style="stroke: #A80036; stroke-width: 1.0;"/><text fill="#000000" font-family="sans-serif" font-size="13" lengthAdjust="spacingAndGlyphs" textLength="41" x="1136" y="417.4888">1. new</text><!--MD5=[acfafaaf3b8a057e4af4e6686fe1e44f]
link Scenario2 to View--><path d="M172.653,188.7439 C168.161,251.0789 162.902,411.4369 214,530.9219 C222.833,551.5769 238.473,570.9869 252.925,586.0303 " fill="none" id="Scenario2-&gt;View" style="stroke: #A80036; stroke-width: 1.0; stroke-dasharray: 7.0,7.0;"/><polygon fill="#A80036" points="256.569,589.7589,253.139,580.5266,253.0742,586.1831,247.4177,586.1183,256.569,589.7589" style="stroke: #A80036; stroke-width: 1.0;"/><text fill="#000000" font-family="sans-serif" font-size="13" lengthAdjust="spacingAndGlyphs" textLength="116" x="194" y="417.4888">5. user interaction</text><text fill="#888888" font-family="sans-serif" font-size="10" lengthAdjust="spacingAndGlyphs" textLength="188" x="794.5" y="692.2041">Generated by GitUml www.gituml.com</text><!--MD5=[416d01e31050eb70ea8f83be91a5afce]
@startuml




center footer Generated by GitUml www.gituml.com

class Model {
  data
  setters
}

class Controllers {
  app
  model
  gui
  event_handler()
  dom_event_handler()
}

class App {
  model
  view state
  boot()
  business_logic1()
  business_logic2() 
}

class View << GUI / DOM >> {
}


App - -> "*" Model : 2. owns
App - -> Model : 8. modifies
Model ..> App #DeepSkyBlue : <color:DeepSkyBlue>9. event</color>

Controllers - -> Model : 7. modify
Model ..> Controllers #DeepSkyBlue : <color:DeepSkyBlue>9. event</color>

App - -> Controllers : 3. creates
App ..> Controllers #DeepSkyBlue : <color:DeepSkyBlue>event</color>
Controllers - -> App : 7. call business logic/ \n access view state

Controllers - -> View : 4. creates
Controllers - -> View : 10. maintains
View ..> Controllers #LimeGreen : <color:LimeGreen>6. DOM</color> \n <color:LimeGreen>event</color>

class Scenario1 < Instance of App() created ><< (S,#FF7700) start here >>
class Scenario2 < User interacts with DOM GUI control ><< (S,#FF7700) start here >>

Scenario1 ...> App : 1. new
Scenario2 ...> View : 5. user interaction


note as N9727
This "literate code map" shows the MVC-A Architecture 
which means MVC plus App Architecture.

This architectural design pattern clearly defines:

* the role mediating Controllers play
* the need for an App object
* the direction and flow of events

The App object is central to this architecture:

* holds refs to models
* creates controllers
* holds view state
* contains some business logic methods
end note

header
MVC-A Architecture - MVC plus App Architecture, 
emphasizing Controllers Roles
by Andy Bulka 2020
endheader
@enduml

PlantUML version 1.2020.02(Sun Mar 01 10:22:07 UTC 2020)
(GPL source distribution)
Java Runtime: Java(TM) SE Runtime Environment
JVM: Java HotSpot(TM) 64-Bit Server VM
Java Version: 1.7.0_25-b15
Operating System: Linux
Default Encoding: UTF-8
Language: en
Country: US
--></g></svg>