<?xml version="1.0" encoding="UTF-8" standalone="no"?><svg xmlns="http://www.w3.org/2000/svg" xmlns:xlink="http://www.w3.org/1999/xlink" contentScriptType="application/ecmascript" contentStyleType="text/css" height="538px" preserveAspectRatio="none" style="width:356px;height:538px;" version="1.1" viewBox="0 0 356 538" width="356px" zoomAndPan="magnify"><defs><filter height="300%" id="f11ogsj8p4t2e6" width="300%" x="-1" y="-1"><feGaussianBlur result="blurOut" stdDeviation="2.0"/><feColorMatrix in="blurOut" result="blurOut2" type="matrix" values="0 0 0 0 0 0 0 0 0 0 0 0 0 0 0 0 0 0 .4 0"/><feOffset dx="4.0" dy="4.0" in="blurOut2" result="blurOut3"/><feBlend in="SourceGraphic" in2="blurOut3" mode="normal"/></filter></defs><g><!--MD5=[7e20e022571e30ec1001cf6eabd7f3e2]
class Model--><rect fill="#FEFECE" filter="url(#f11ogsj8p4t2e6)" height="48" id="Model" style="stroke: #A80036; stroke-width: 1.5;" width="67" x="155" y="8"/><ellipse cx="170" cy="24" fill="#FF7700" rx="11" ry="11" style="stroke: #A80036; stroke-width: 1.0;"/><path d="M165.7139,18.1069 L168.6357,18.1069 L170.1133,23.5439 L171.5825,18.1069 L174.521,18.1069 L174.521,30.5 L172.4126,30.5 L172.4126,20.5723 L171.1011,25.9927 L169.1504,25.9927 L167.8223,20.5723 L167.8223,30.5 L165.7139,30.5 Z "/><text fill="#000000" font-family="sans-serif" font-size="12" lengthAdjust="spacingAndGlyphs" textLength="35" x="184" y="28.5352">Model</text><line style="stroke: #A80036; stroke-width: 1.5;" x1="156" x2="221" y1="40" y2="40"/><line style="stroke: #A80036; stroke-width: 1.5;" x1="156" x2="221" y1="48" y2="48"/><!--MD5=[7e6cdae7f1690c5cc990a159d4e233ea]
class Mediators (adapter/controller)--><rect fill="#FEFECE" filter="url(#f11ogsj8p4t2e6)" height="86.8652" id="Mediators (adapter/controller)" style="stroke: #A80036; stroke-width: 1.5;" width="207" x="6" y="134.5"/><ellipse cx="21" cy="150.5" fill="#FF7700" rx="11" ry="11" style="stroke: #A80036; stroke-width: 1.0;"/><path d="M23.4731,156.6431 Q22.8921,156.9419 22.2529,157.0913 Q21.6138,157.2407 20.9082,157.2407 Q18.4014,157.2407 17.0815,155.5889 Q15.7617,153.937 15.7617,150.8159 Q15.7617,147.6865 17.0815,146.0347 Q18.4014,144.3828 20.9082,144.3828 Q21.6138,144.3828 22.2612,144.5322 Q22.9087,144.6816 23.4731,144.9805 L23.4731,147.7031 Q22.8423,147.1221 22.2488,146.8523 Q21.6553,146.5825 21.0244,146.5825 Q19.6797,146.5825 18.9949,147.6492 Q18.3101,148.7158 18.3101,150.8159 Q18.3101,152.9077 18.9949,153.9744 Q19.6797,155.041 21.0244,155.041 Q21.6553,155.041 22.2488,154.7712 Q22.8423,154.5015 23.4731,153.9204 Z "/><text fill="#000000" font-family="sans-serif" font-size="12" lengthAdjust="spacingAndGlyphs" textLength="175" x="35" y="155.0352">Mediators (adapter/controller)</text><line style="stroke: #A80036; stroke-width: 1.5;" x1="7" x2="212" y1="166.5" y2="166.5"/><text fill="#000000" font-family="sans-serif" font-size="11" lengthAdjust="spacingAndGlyphs" textLength="87" x="12" y="181.1348">model reference</text><text fill="#000000" font-family="sans-serif" font-size="11" lengthAdjust="spacingAndGlyphs" textLength="78" x="12" y="194.0898">dom reference</text><line style="stroke: #A80036; stroke-width: 1.5;" x1="7" x2="212" y1="200.4102" y2="200.4102"/><text fill="#000000" font-family="sans-serif" font-size="11" lengthAdjust="spacingAndGlyphs" textLength="39" x="12" y="215.0449">notify()</text><!--MD5=[06ac69753473ab242fc293b937e5f5f2]
class View (GUI/DOM)--><rect fill="#FEFECE" filter="url(#f11ogsj8p4t2e6)" height="86.8652" id="View (GUI/DOM)" style="stroke: #A80036; stroke-width: 1.5;" width="125" x="88" y="300.5"/><ellipse cx="103" cy="316.5" fill="#FF7700" rx="11" ry="11" style="stroke: #A80036; stroke-width: 1.0;"/><path d="M103.1133,321.458 L105.2964,311.1069 L107.7617,311.1069 L104.8149,323.5 L101.4199,323.5 L98.4731,311.1069 L100.9385,311.1069 Z "/><text fill="#000000" font-family="sans-serif" font-size="12" lengthAdjust="spacingAndGlyphs" textLength="93" x="117" y="321.0352">View (GUI/DOM)</text><line style="stroke: #A80036; stroke-width: 1.5;" x1="89" x2="212" y1="332.5" y2="332.5"/><text fill="#000000" font-family="sans-serif" font-size="11" lengthAdjust="spacingAndGlyphs" textLength="42" x="94" y="347.1348">buttons</text><text fill="#000000" font-family="sans-serif" font-size="11" lengthAdjust="spacingAndGlyphs" textLength="58" x="94" y="360.0898">text inputs</text><text fill="#000000" font-family="sans-serif" font-size="11" lengthAdjust="spacingAndGlyphs" textLength="89" x="94" y="373.0449">checkbox inputs</text><line style="stroke: #A80036; stroke-width: 1.5;" x1="89" x2="212" y1="379.3652" y2="379.3652"/><!--MD5=[335f4d9be48430461c68bf6d6fdba145]
class App--><rect fill="#FEFECE" filter="url(#f11ogsj8p4t2e6)" height="60.9551" id="App" style="stroke: #A80036; stroke-width: 1.5;" width="99" x="165" y="466.5"/><ellipse cx="199.35" cy="482.5" fill="#ADD1B2" rx="11" ry="11" style="stroke: #A80036; stroke-width: 1.0;"/><path d="M201.8231,488.6431 Q201.2421,488.9419 200.6029,489.0913 Q199.9638,489.2407 199.2582,489.2407 Q196.7514,489.2407 195.4315,487.5889 Q194.1117,485.937 194.1117,482.8159 Q194.1117,479.6865 195.4315,478.0347 Q196.7514,476.3828 199.2582,476.3828 Q199.9638,476.3828 200.6112,476.5322 Q201.2587,476.6816 201.8231,476.9805 L201.8231,479.7031 Q201.1923,479.1221 200.5988,478.8523 Q200.0053,478.5825 199.3744,478.5825 Q198.0297,478.5825 197.3449,479.6492 Q196.6601,480.7158 196.6601,482.8159 Q196.6601,484.9077 197.3449,485.9744 Q198.0297,487.041 199.3744,487.041 Q200.0053,487.041 200.5988,486.7712 Q201.1923,486.5015 201.8231,485.9204 Z "/><text fill="#000000" font-family="sans-serif" font-size="12" lengthAdjust="spacingAndGlyphs" textLength="24" x="217.65" y="487.0352">App</text><line style="stroke: #A80036; stroke-width: 1.5;" x1="166" x2="263" y1="498.5" y2="498.5"/><text fill="#000000" font-family="sans-serif" font-size="11" lengthAdjust="spacingAndGlyphs" textLength="87" x="171" y="513.1348">model reference</text><line style="stroke: #A80036; stroke-width: 1.5;" x1="166" x2="263" y1="519.4551" y2="519.4551"/><!--MD5=[6df98af62b3728a9b3650b24011c113d]
link Mediators (adapter/controller) to View (GUI/DOM)--><path d="M62.3111,221.614 C51.4375,236.585 45.1333,253.733 53.25,270 C60.2672,284.063 71.4267,296.128 83.72,306.164 " fill="none" id="Mediators (adapter/controller)-&gt;View (GUI/DOM)" style="stroke: #A80036; stroke-width: 1.0;"/><polygon fill="#A80036" points="87.9281,309.49,83.3474,300.7712,84.0054,306.3897,78.3869,307.0476,87.9281,309.49" style="stroke: #A80036; stroke-width: 1.0;"/><text fill="#000000" font-family="sans-serif" font-size="13" lengthAdjust="spacingAndGlyphs" textLength="54" x="54.25" y="265.5684">set DOM</text><!--MD5=[90a94ac699f501c90fa85cb9b9657a68]
link View (GUI/DOM) to Mediators (adapter/controller)--><path d="M139.567,300.268 C133.916,277.663 126.961,249.846 121.14,226.558 " fill="none" id="View (GUI/DOM)-&gt;Mediators (adapter/controller)" style="stroke: #A80036; stroke-width: 1.0; stroke-dasharray: 7.0,7.0;"/><polygon fill="#A80036" points="119.915,221.661,118.2173,231.3624,121.1277,226.5117,125.9784,229.4221,119.915,221.661" style="stroke: #A80036; stroke-width: 1.0;"/><text fill="#000000" font-family="sans-serif" font-size="13" lengthAdjust="spacingAndGlyphs" textLength="67" x="132.25" y="265.5684">GUI events</text><!--MD5=[e04f01a84c453b5b11c9addfe697fcc7]
link View (GUI/DOM) to App--><path d="M155.877,387.851 C158.898,403.465 163.454,420.966 170.25,436 C174.29,444.9384 179.805,453.8533 185.565,461.9723 " fill="none" id="View (GUI/DOM)-&gt;App" style="stroke: #A80036; stroke-width: 1.0; stroke-dasharray: 7.0,7.0;"/><polygon fill="#A80036" points="188.781,466.396,186.7233,456.7645,185.8405,462.352,180.253,461.4693,188.781,466.396" style="stroke: #A80036; stroke-width: 1.0;"/><text fill="#000000" font-family="sans-serif" font-size="13" lengthAdjust="spacingAndGlyphs" textLength="67" x="171.25" y="431.5684">GUI events</text><!--MD5=[5c2fb7e3c3618f05f4454547481fedff]
link Model to Mediators (adapter/controller)--><path d="M154.592,45.712 C137.101,54.244 117.322,67.374 107.25,86 C100.288,98.875 98.6258,114.346 99.3396,128.85 " fill="none" id="Model-&gt;Mediators (adapter/controller)" style="stroke: #A80036; stroke-width: 1.0; stroke-dasharray: 7.0,7.0;"/><polygon fill="#A80036" points="99.7047,134.142,103.0755,124.8879,99.3604,129.1539,95.0945,125.4388,99.7047,134.142" style="stroke: #A80036; stroke-width: 1.0;"/><text fill="#000000" font-family="sans-serif" font-size="13" lengthAdjust="spacingAndGlyphs" textLength="130" x="108.25" y="99.5684">setter events (notify)</text><!--MD5=[7d44fd0a3837572a336f5d849720dbb4]
link App to Model--><path d="M232.538,466.2091 C237.32,456.8775 241.815,446.3145 244.25,436 C279.989,284.606 305.75,228.882 244.25,86 C240.02,76.173 232.974,67.317 225.281,59.782 " fill="none" id="App-&gt;Model" style="stroke: #A80036; stroke-width: 1.0;"/><polygon fill="#A80036" points="221.462,56.191,225.28,65.2697,225.1051,59.6156,230.7593,59.4407,221.462,56.191" style="stroke: #A80036; stroke-width: 1.0;"/><text fill="#000000" font-family="sans-serif" font-size="13" lengthAdjust="spacingAndGlyphs" textLength="62" x="282.25" y="265.5684">set model</text><!--MD5=[70bdde0ec452f443dce48c9fb7f5ca83]
@startuml MVC-A-MGM-Architecture

class "Model"  << (M,#FF7700) >> {
}

class "Mediators (adapter/controller)" << (C,#FF7700) >> {
    model reference
    dom reference
    notify()
}

class "View (GUI/DOM)" << (V,#FF7700) >> {
    buttons
    text inputs
    checkbox inputs
}

class App {
    model reference
}

"Mediators (adapter/controller)" - -> "View (GUI/DOM)" : set DOM
"View (GUI/DOM)" ..> "Mediators (adapter/controller)" : GUI events
"View (GUI/DOM)" ..> App : GUI events
Model ..> "Mediators (adapter/controller)" : setter events (notify)
App - -> Model : set model
@enduml

PlantUML version 1.2019.12(Sun Nov 03 21:24:54 AEDT 2019)
(GPL source distribution)
Java Runtime: Java(TM) SE Runtime Environment
JVM: Java HotSpot(TM) 64-Bit Server VM
Java Version: 1.8.0_221-b11
Operating System: Mac OS X
Default Encoding: UTF-8
Language: en
Country: AU
--></g></svg>